<mxfile modified="2023-07-06T07:59:52.987Z" host="app.diagrams.net" agent="Mozilla/5.0 (Windows NT 10.0; Win64; x64) AppleWebKit/537.36 (KHTML, like Gecko) Chrome/114.0.0.0 Safari/537.36" etag="0R0P1jP2UGReWUCOeQcD" version="21.6.1" type="github">
  <diagram id="WI9T0HZ2pTsCkuznbFz-" name="Page-1">
    <mxGraphModel dx="1434" dy="802" grid="1" gridSize="10" guides="1" tooltips="1" connect="1" arrows="1" fold="1" page="1" pageScale="1" pageWidth="1169" pageHeight="1654" math="0" shadow="0">
      <root>
        <mxCell id="0" />
        <mxCell id="1" parent="0" />
        <mxCell id="cnw9rlaOAe4eeBvIx0O1-15" style="edgeStyle=orthogonalEdgeStyle;rounded=0;orthogonalLoop=1;jettySize=auto;html=1;exitX=0.5;exitY=1;exitDx=0;exitDy=0;entryX=0.5;entryY=0;entryDx=0;entryDy=0;" edge="1" parent="1" source="cnw9rlaOAe4eeBvIx0O1-1" target="cnw9rlaOAe4eeBvIx0O1-2">
          <mxGeometry relative="1" as="geometry" />
        </mxCell>
        <mxCell id="cnw9rlaOAe4eeBvIx0O1-18" style="edgeStyle=orthogonalEdgeStyle;rounded=0;orthogonalLoop=1;jettySize=auto;html=1;exitX=0.5;exitY=1;exitDx=0;exitDy=0;entryX=0.5;entryY=0;entryDx=0;entryDy=0;" edge="1" parent="1" source="cnw9rlaOAe4eeBvIx0O1-1" target="cnw9rlaOAe4eeBvIx0O1-3">
          <mxGeometry relative="1" as="geometry" />
        </mxCell>
        <mxCell id="cnw9rlaOAe4eeBvIx0O1-19" style="edgeStyle=orthogonalEdgeStyle;rounded=0;orthogonalLoop=1;jettySize=auto;html=1;exitX=0.5;exitY=1;exitDx=0;exitDy=0;entryX=0.5;entryY=0;entryDx=0;entryDy=0;" edge="1" parent="1" source="cnw9rlaOAe4eeBvIx0O1-1" target="cnw9rlaOAe4eeBvIx0O1-11">
          <mxGeometry relative="1" as="geometry" />
        </mxCell>
        <mxCell id="cnw9rlaOAe4eeBvIx0O1-1" value="" style="shape=image;verticalLabelPosition=bottom;labelBackgroundColor=#ffffff;verticalAlign=top;aspect=fixed;imageAspect=0;image=data:image/svg+xml,PHN2ZyB4bWxuczpkYz0iaHR0cDovL3B1cmwub3JnL2RjL2VsZW1lbnRzLzEuMS8iIHhtbG5zOmNjPSJodHRwOi8vY3JlYXRpdmVjb21tb25zLm9yZy9ucyMiIHhtbG5zOnJkZj0iaHR0cDovL3d3dy53My5vcmcvMTk5OS8wMi8yMi1yZGYtc3ludGF4LW5zIyIgeG1sbnM6c3ZnPSJodHRwOi8vd3d3LnczLm9yZy8yMDAwL3N2ZyIgeG1sbnM9Imh0dHA6Ly93d3cudzMub3JnLzIwMDAvc3ZnIiB4bWxuczpzb2RpcG9kaT0iaHR0cDovL3NvZGlwb2RpLnNvdXJjZWZvcmdlLm5ldC9EVEQvc29kaXBvZGktMC5kdGQiIHhtbG5zOmlua3NjYXBlPSJodHRwOi8vd3d3Lmlua3NjYXBlLm9yZy9uYW1lc3BhY2VzL2lua3NjYXBlIiB2ZXJzaW9uPSIxLjEiIGlkPSJzdmc2MTMyMyIgaW5rc2NhcGU6dmVyc2lvbj0iMC45Mi4zICgyNDA1NTQ2LCAyMDE4LTAzLTExKSIgc29kaXBvZGk6ZG9jbmFtZT0iYXp1cmVfcG9ydGFsX3dlYl9hcHBzLnN2ZyIgeD0iMHB4IiB5PSIwcHgiIHZpZXdCb3g9IjAgMCA1MS4wMjkzMTcgNTEuMDIiIHhtbDpzcGFjZT0icHJlc2VydmUiIHdpZHRoPSI1MS4wMjkzMTYiIGhlaWdodD0iNTEuMDIiPjxtZXRhZGF0YSBpZD0ibWV0YWRhdGExMTY1NSI+PHJkZjpSREY+PGNjOldvcmsgcmRmOmFib3V0PSIiPjxkYzpmb3JtYXQ+aW1hZ2Uvc3ZnK3htbDwvZGM6Zm9ybWF0PjxkYzp0eXBlIHJkZjpyZXNvdXJjZT0iaHR0cDovL3B1cmwub3JnL2RjL2RjbWl0eXBlL1N0aWxsSW1hZ2UiLz48ZGM6dGl0bGUvPjwvY2M6V29yaz48L3JkZjpSREY+PC9tZXRhZGF0YT48ZGVmcyBpZD0iZGVmczExNjUzIi8+JiN4YTs8ZmlsdGVyIGlkPSJmaWx0ZXJfMiI+JiN4YTsJPGZlR2F1c3NpYW5CbHVyIGlkPSJmZUdhdXNzaWFuQmx1cjYxMjk2IiBzdGREZXZpYXRpb249IjIiLz4mI3hhOzwvZmlsdGVyPiYjeGE7PHNvZGlwb2RpOm5hbWVkdmlldyBib3JkZXJjb2xvcj0iIzY2NjY2NiIgYm9yZGVyb3BhY2l0eT0iMSIgZml0LW1hcmdpbi1ib3R0b209IjAiIGZpdC1tYXJnaW4tbGVmdD0iMCIgZml0LW1hcmdpbi1yaWdodD0iMCIgZml0LW1hcmdpbi10b3A9IjAiIGdyaWR0b2xlcmFuY2U9IjEwIiBndWlkZXRvbGVyYW5jZT0iMTAiIGlkPSJuYW1lZHZpZXc2MTMyNSIgaW5rc2NhcGU6Y3VycmVudC1sYXllcj0ic3ZnNjEzMjMiIGlua3NjYXBlOmN4PSItNDUuMDA0ODE4IiBpbmtzY2FwZTpjeT0iMzkuNDkwNjM4IiBpbmtzY2FwZTpwYWdlb3BhY2l0eT0iMCIgaW5rc2NhcGU6cGFnZXNoYWRvdz0iMiIgaW5rc2NhcGU6d2luZG93LWhlaWdodD0iMTAxNyIgaW5rc2NhcGU6d2luZG93LW1heGltaXplZD0iMSIgaW5rc2NhcGU6d2luZG93LXdpZHRoPSIxOTIwIiBpbmtzY2FwZTp3aW5kb3cteD0iLTgiIGlua3NjYXBlOndpbmRvdy15PSItOCIgaW5rc2NhcGU6em9vbT0iNC4zMDY1ODM0IiBvYmplY3R0b2xlcmFuY2U9IjEwIiBwYWdlY29sb3I9IiNmZmZmZmYiIHNob3dncmlkPSJmYWxzZSI+JiN4YTsJPC9zb2RpcG9kaTpuYW1lZHZpZXc+JiN4YTsmI3hhOzxwYXRoIGlkPSJwYXRoNjEzMDkiIGlua3NjYXBlOmNvbm5lY3Rvci1jdXJ2YXR1cmU9IjAiIHN0eWxlPSJmaWxsOiM1OWI0ZDkiIGQ9Im0gNDEuMDE0NTI2LDQ1Ljc2IGMgLTQuNjIsMy41MyAtMTAuMDcsNS4yNiAtMTUuNDcsNS4yNiAtNy42OCwwIC0xNS4yNywtMy40NSAtMjAuMjc5OTk5OSwtMTAuMDEgLTguNTcsLTExLjE5IC02LjQ2LC0yNy4xOCA0Ljc0OTk5OTksLTM1Ljc2IDQuNjIsLTMuNTUgMTAuMDgsLTUuMjUgMTUuNDgsLTUuMjUgNy42NywwIDE1LjI2LDMuNDUgMjAuMjgsMTAuMDEgOC41NywxMS4xOCA2LjQzLDI3LjE5IC00Ljc2LDM1Ljc1IHoiLz4mI3hhOyYjeGE7PHBhdGggaWQ9InBhdGg2MTMxNyIgaW5rc2NhcGU6Y29ubmVjdG9yLWN1cnZhdHVyZT0iMCIgc3R5bGU9ImZpbGw6I2ZmZmZmZiIgZD0ibSAzNi4zMzQ1MjYsMjkuOTggYyAxLjg1LDIuNDEgNS4yOSwyLjg1IDcuNywxLjAyIDAuMTIsLTAuMDkgMC4yMiwtMC4yMSAwLjMzLC0wLjMxIDIuNDYsMS43MyA0LjE3LDIuODcgNS4xMywzLjUzIDAuMjgsLTAuNzQgMC40OCwtMS40NSAwLjY4LC0yLjE5IC0xLjAxLC0wLjc2IC0yLjM5LC0xLjgxIC00LjM3LC0zLjQyIDAuNjUsLTEuNzIgMC40NCwtMy43MiAtMC43NSwtNS4yOCAtMS43LC0yLjIxIC00LjcyLC0yLjc3IC03LjA4LC0xLjQxIC0yLjYsLTIuMzMgLTUuNDUsLTUgLTguNDYsLTcuOTkgOS4zNSwtNS4wMyAxNiwtNC4yOSAxNiwtNC4yOSAtMS4xMSwtMS40MiAtMi4zNiwtMi42NiAtMy42OCwtMy43OCAtMy45NSwtMC42MSAtMTAuMDcsLTAuNTQgLTE3LjA3LDMuMTkgbCAtMC4wMSwtMC4wMSB2IDAgYyAtMi4zMywtMi40NCAtNC43MSwtNS4wNiAtNy4xMiwtNy44NyAtMS4xNiwwLjM3IC0yLjI5LDAuODMgLTMuMzgsMS4zOCAxLjc4LDIuOTIgNC4xOCw1Ljg3IDYuODksOC43NCAwLDAuMDEgMC4wMSwwLjAxIDAuMDIsMC4wMiAtMi4yNiwxLjU3IC00Ljc3LDMuNjggLTcuMDksNi4xMyAtMC4zLDAuMzIgLTAuNTgsMC42NCAtMC44NiwwLjk1IC0xLjM4LC0wLjI5IC0yLjg0LC0wLjIgLTQuMTk5OTk5OSwwLjI5IC0yLjMxLC00Ljk4IC0yLjEzLC04Ljk5IC0xLjc2LC0xMS4wNSAtMSwxLjA1IC0xLjk0LDIuMTUgLTIuNzUsMy4zMyAtMC42LDIuNDcgLTAuNzcsNi4wMiAxLjAxLDEwLjMgLTIuMDYsMi43IC0yLjE2LDYuNTIgLTAuMDEsOS4zNSAwLjE4LDAuMjMgMC4zNywwLjQ1IDAuNTcsMC42NSAtMC45NCwzLjIgLTEuMzYsNi4yOSAtMS40OSw4Ljk0IDAuMjQsMC4zMyAwLjI0LDAuNiAwLjQ4LDAuOTIgMS4yMywxLjU3IDIuNzYsMi44OSA0LjI1LDQuMDkgLTAuMTgsLTIuODEgMC4wMSwtNi45NSAxLjc0OTk5OTksLTExLjYxIDEuMiwwLjA5IDIuNDEsLTAuMDkgMy41NSwtMC41NyAwLjY2LDAuNTcgMS4zNCwxLjE1IDIuMDcsMS43NCAyLjUsMS45OCA1LDMuNTMgNy40Myw0Ljc0IC0wLjEyLDEuMjQgMC4xOSwyLjUyIDAuOTksMy41OSAxLjcyLDIuMjIgNC45MSwyLjY0IDcuMTMsMC45NCAwLjQ2LC0wLjM2IDAuODMsLTAuNzggMS4xMywtMS4yNCAzLjk3LDAuODggNy40NCwxLjA0IDEwLjAxLDEuMDQgMC4zOSwwIDIuMjIsLTIuNDkgMy4yNiwtNC4wMyAtMS41NiwwLjMzIC02LjIsMC45NyAtMTIuNTUsLTAuODYgLTAuMTUsLTAuNzEgLTAuNDQsLTEuNCAtMC45MSwtMi4wMiAtMS42MiwtMi4xMSAtNC41NiwtMi41NyAtNi43NiwtMS4xNSAtMi4yLC0xLjIgLTQuNTEsLTIuNyAtNi44OSwtNC41OSAtMC40OCwtMC4zOCAtMC45NSwtMC43NiAtMS4zOSwtMS4xNCAxLjQ1LC0yLjI5IDEuNjEsLTUuMjMgMC4zMiwtNy43IDAuMywtMC4yOSAwLjU4LC0wLjU5IDAuODksLTAuODggMi4zNiwtMi4yIDQuNTgsLTMuOTYgNi42NiwtNS4zOCAtMC4wOSwtMC4wOCAtMC4xNiwtMC4xNiAtMC4yNSwtMC4yNCAwLjA5LDAuMDggMC4xNiwwLjE2IDAuMjUsMC4yNCB2IDAgYyAzLjE4LDIuOTQgNi41Niw1LjczIDkuNzYsOC4yMyAtMC44NSwxLjc5IC0wLjcyLDMuOTggMC41Nyw1LjY2IHoiLz4mI3hhOzwvc3ZnPg==;" vertex="1" parent="1">
          <mxGeometry x="566" y="295" width="50" height="50" as="geometry" />
        </mxCell>
        <mxCell id="cnw9rlaOAe4eeBvIx0O1-2" value="" style="shape=image;verticalLabelPosition=bottom;labelBackgroundColor=#ffffff;verticalAlign=top;aspect=fixed;imageAspect=0;image=data:image/svg+xml,PHN2ZyB4bWxuczpkYz0iaHR0cDovL3B1cmwub3JnL2RjL2VsZW1lbnRzLzEuMS8iIHhtbG5zOmNjPSJodHRwOi8vY3JlYXRpdmVjb21tb25zLm9yZy9ucyMiIHhtbG5zOnJkZj0iaHR0cDovL3d3dy53My5vcmcvMTk5OS8wMi8yMi1yZGYtc3ludGF4LW5zIyIgeG1sbnM6c3ZnPSJodHRwOi8vd3d3LnczLm9yZy8yMDAwL3N2ZyIgeG1sbnM9Imh0dHA6Ly93d3cudzMub3JnLzIwMDAvc3ZnIiB4bWxuczpzb2RpcG9kaT0iaHR0cDovL3NvZGlwb2RpLnNvdXJjZWZvcmdlLm5ldC9EVEQvc29kaXBvZGktMC5kdGQiIHhtbG5zOmlua3NjYXBlPSJodHRwOi8vd3d3Lmlua3NjYXBlLm9yZy9uYW1lc3BhY2VzL2lua3NjYXBlIiB2ZXJzaW9uPSIxLjEiIGlkPSJzdmc2NjU2NSIgaW5rc2NhcGU6dmVyc2lvbj0iMC45Mi4zICgyNDA1NTQ2LCAyMDE4LTAzLTExKSIgc29kaXBvZGk6ZG9jbmFtZT0iYXp1cmVfd2Viam9icy5zdmciIHg9IjBweCIgeT0iMHB4IiB2aWV3Qm94PSIwIDAgMzcuNTUxOSAzNy41MiIgeG1sOnNwYWNlPSJwcmVzZXJ2ZSIgd2lkdGg9IjM3LjU1MTg5OSIgaGVpZ2h0PSIzNy41MiI+PG1ldGFkYXRhIGlkPSJtZXRhZGF0YTIxMTA2Ij48cmRmOlJERj48Y2M6V29yayByZGY6YWJvdXQ9IiI+PGRjOmZvcm1hdD5pbWFnZS9zdmcreG1sPC9kYzpmb3JtYXQ+PGRjOnR5cGUgcmRmOnJlc291cmNlPSJodHRwOi8vcHVybC5vcmcvZGMvZGNtaXR5cGUvU3RpbGxJbWFnZSIvPjxkYzp0aXRsZS8+PC9jYzpXb3JrPjwvcmRmOlJERj48L21ldGFkYXRhPjxkZWZzIGlkPSJkZWZzMjExMDQiLz4mI3hhOzxmaWx0ZXIgaWQ9ImZpbHRlcl8yIj4mI3hhOwk8ZmVHYXVzc2lhbkJsdXIgaWQ9ImZlR2F1c3NpYW5CbHVyNjY0ODQiIHN0ZERldmlhdGlvbj0iMiIvPiYjeGE7PC9maWx0ZXI+JiN4YTs8c29kaXBvZGk6bmFtZWR2aWV3IGJvcmRlcmNvbG9yPSIjNjY2NjY2IiBib3JkZXJvcGFjaXR5PSIxIiBmaXQtbWFyZ2luLWJvdHRvbT0iMCIgZml0LW1hcmdpbi1sZWZ0PSIwIiBmaXQtbWFyZ2luLXJpZ2h0PSIwIiBmaXQtbWFyZ2luLXRvcD0iMCIgZ3JpZHRvbGVyYW5jZT0iMTAiIGd1aWRldG9sZXJhbmNlPSIxMCIgaWQ9Im5hbWVkdmlldzY2NTY3IiBpbmtzY2FwZTpjdXJyZW50LWxheWVyPSJzdmc2NjU2NSIgaW5rc2NhcGU6Y3g9Ii0xOC4yODE4ODgiIGlua3NjYXBlOmN5PSIxNi42Mjk5MDEiIGlua3NjYXBlOnBhZ2VvcGFjaXR5PSIwIiBpbmtzY2FwZTpwYWdlc2hhZG93PSIyIiBpbmtzY2FwZTp3aW5kb3ctaGVpZ2h0PSIxMDE3IiBpbmtzY2FwZTp3aW5kb3ctbWF4aW1pemVkPSIxIiBpbmtzY2FwZTp3aW5kb3ctd2lkdGg9IjE5MjAiIGlua3NjYXBlOndpbmRvdy14PSItOCIgaW5rc2NhcGU6d2luZG93LXk9Ii04IiBpbmtzY2FwZTp6b29tPSIxMC41NjQ5NjgiIG9iamVjdHRvbGVyYW5jZT0iMTAiIHBhZ2Vjb2xvcj0iI2ZmZmZmZiIgc2hvd2dyaWQ9ImZhbHNlIj4mI3hhOwk8L3NvZGlwb2RpOm5hbWVkdmlldz4mI3hhOyYjeGE7PHBhdGggaWQ9InBhdGg2NjQ5NyIgaW5rc2NhcGU6Y29ubmVjdG9yLWN1cnZhdHVyZT0iMCIgc3R5bGU9ImZpbGw6IzU5YjRkOSIgZD0ibSAyNC43NjE4OTksMjcuNiBjIC0yLjc3LDIuMTEgLTYuMDgsMy4xNSAtOS4yOSwzLjE1IC00LjY1LDAgLTkuMjI5OTk5OSwtMi4xIC0xMi4yMjk5OTk5LC02IC01LjI1LC02Ljc1IC0zLjk4LC0xNi40MiAyLjc3LC0yMS42IDIuODYsLTIuMTEgNi4wNzk5OTk5LC0zLjE1IDkuMzc5OTk5OSwtMy4xNSA0LjY0LDAgOS4yMywyLjEgMTIuMjMsNiA1LjE2LDYuNzUgMy44MSwxNi40MiAtMi44NiwyMS42IHoiLz4mI3hhOyYjeGE7PHBhdGggaWQ9InBhdGg2NjUwNSIgaW5rc2NhcGU6Y29ubmVjdG9yLWN1cnZhdHVyZT0iMCIgc3R5bGU9ImZpbGw6I2ZmZmZmZiIgZD0ibSAyNy42MTE4OTksMTcuMjUgYyAwLjM4LC0xLjA0IDAuMjksLTIuMjUgLTAuNDYsLTMuMTUgLTEuMDQsLTEuMzUgLTIuODUsLTEuNjQgLTQuMjcsLTAuODMgLTEuNTgsLTEuNDIgLTMuMjksLTMgLTUuMSwtNC43OSA1LjQ4LC0zIDkuMzcsLTIuNzEgOS42LC0yLjcxIC0wLjY2LC0wLjg0IC0xLjQxLC0xLjU5IC0yLjI1LC0yLjI1IC0yLjM5LC0wLjM4IC02LjA4LC0wLjI5IC0xMC4yNywxLjk2IC0xLjQxLC0xLjQyIC0yLjg1LC0zIC00LjI3LC00LjczIC0wLjY2OTk5OTksMC4yMyAtMS4zNDk5OTk5LDAuNTIgLTIuMDE5OTk5OSwwLjgzIDEuMDQsMS43MyAyLjQ3OTk5OTksMy41MiA0LjEyOTk5OTksNS4yNSAtMS40NCwwLjk2IC0yLjg1OTk5OTksMi4xNyAtNC4yOTk5OTk5LDMuNjcgLTAuMTQsMC4yMyAtMC4zNywwLjM3IC0wLjUyLDAuNiAtMC44MywtMC4xNCAtMS43MywtMC4xNCAtMi41NCwwLjE1IC0xLjM1LC0zIC0xLjI3LC01LjM0IC0xLjA0LC02LjYxIC0wLjUyLDAuNjcgLTEuMDQsMS4zNiAtMS41OCwyLjAyIC0wLjM4LDEuNSAtMC40NiwzLjYxIDAuNiw2LjE1IC0xLjI3LDEuNjUgLTEuMjcsMy45IDAsNS42MiAwLjA4LDAuMTUgMC4yMywwLjMgMC4zOCwwLjM4IC0wLjUzLDEuODcgLTAuODQsMy43NSAtMC45LDUuMzMgMC4xNSwwLjIzIDAuMjMsMC4zOCAwLjM3LDAuNjEgMC43NSwwLjk4IDEuNTksMS43OSAyLjQ4LDIuNTQgLTAuMDgsLTEuNzMgMCwtNC4yMSAxLjA1LC02Ljk4IDAuNzUsMC4wOCAxLjQxLC0wLjA4IDIuMTYsLTAuMzggMC4zOCwwLjM4IDAuODQsMC42NyAxLjI2OTk5OTksMS4wNSAxLjUsMS4yIDMsMi4xIDQuNSwyLjg1IC0wLjA4LDAuNzUgMC4wOSwxLjUgMC42MSwyLjE3IDEuMDQsMS4zNSAyLjkxLDEuNTggNC4yNywwLjYgMC4yOSwtMC4yMyAwLjUyLC0wLjQ2IDAuNjYsLTAuNzUgMi4zNCwwLjUyIDQuNDIsMC42MSA1LjkyLDAuNjEgMC42NywtMC42NyAxLjM2LC0xLjQyIDEuODgsLTIuMTcgMC4wOCwtMC4wOCAwLjA4LC0wLjE1IDAuMTQsLTAuMjMgLTAuOTgsMC4yMyAtMy43NSwwLjYgLTcuNTgsLTAuNTIgLTAuMDgsLTAuNDYgLTAuMjksLTAuODMgLTAuNTIsLTEuMjEgLTAuOTgsLTEuMjcgLTIuNzcsLTEuNTggLTQuMDQsLTAuNjcgLTEuMzYsLTAuNzUgLTIuNzEsLTEuNjQgLTQuMTMsLTIuNzcgLTAuMjksLTAuMjMgLTAuNiwtMC40NiAtMC44MywtMC42NiAwLjg5LC0xLjM2IDAuOTgsLTMuMTUgMC4yMywtNC42NSAwLjE0LC0wLjE1IDAuMzcsLTAuMzcgMC41MiwtMC41MiAxLjM3LC0xLjIxIDIuODcsLTIuNDIgNC4wOCwtMy4yMyAxLjk0LDEuNzkgMy45NiwzLjQ0IDUuODMsNC45NCAtMC41MiwxLjA0IC0wLjQ1LDIuMzkgMC4zOCwzLjM3IDEuMTIsMS40MiAzLjIzLDEuNzMgNC42NSwwLjYxIDAuMDgsLTAuMDkgMC4xNCwtMC4xNSAwLjIyLC0wLjIzIDEuMzYsMC45OCAyLjQ4LDEuNzMgMy4wOSwyLjEgMC4xNCwtMC40NiAwLjI5LC0wLjg5IDAuMzcsLTEuMzUgLTAuNzUsLTAuNDQgLTEuNjQsLTEuMTMgLTIuNzcsLTIuMDIgeiIvPiYjeGE7JiN4YTs8cGF0aCBpZD0icGF0aDY2NTEzIiBpbmtzY2FwZTpjb25uZWN0b3ItY3VydmF0dXJlPSIwIiBzdHlsZT0iZmlsbDojN2E3YTdhIiBkPSJtIDMzLjY3MTg5OSwxOS40MiAtMC4yOSwwLjE0IC0yLjMzLDEuMjEgLTEuNTksLTAuNjYgLTAuOTgsLTIuNzggaCAtMi4yMyBsIC0wLjE0LDAuMyAtMC44NCwyLjQ4IC0xLjU4LDAuNjYgLTIuNjIsLTEuMjcgLTEuNTksMS42NSAwLjE1LDAuMjkgMS4yMSwyLjMzIC0wLjY3LDEuNTkgLTIuNzcsMC45NyB2IDIuMzQgbCAwLjI5LDAuMDggMi40OCwwLjgzIDAuNjcsMS41OSAtMS4yNSwyLjU4IDEuNjQsMS42NSAwLjI5LC0wLjE1IDIuMzQsLTEuMjEgMS41OCwwLjY3IDAuOTgsMi43NyBoIDIuMzMgbCAwLjA5LC0wLjI5IDAuODMsLTIuNDggMS41OCwtMC42NyAyLjcxLDEuMjcgMS42NSwtMS42NCAtMS41LC0yLjYzIDAuNjYsLTEuNTggMi43OCwtMC45OCB2IC0yLjIzIGwgLTAuMywtMC4xNCAtMi40OCwtMC44NCAtMC42NiwtMS41OCAxLjEyLC0yLjQgeiBtIC02LjIxLDExLjI1IGMgLTEuNzksMCAtMy4yMywtMS40MiAtMy4yMywtMy4yMyAwLC0xLjc5IDEuNDIsLTMuMjMgMy4yMywtMy4yMyAxLjgxLDAgMy4yMywxLjQyIDMuMjMsMy4yMyAtMC4wMiwxLjgxIC0xLjQ0LDMuMjMgLTMuMjMsMy4yMyB6Ii8+JiN4YTsmI3hhOyYjeGE7JiN4YTs8cGF0aCBpZD0icGF0aDY2NTMxIiBpbmtzY2FwZTpjb25uZWN0b3ItY3VydmF0dXJlPSIwIiBzdHlsZT0iZmlsbDojZmZmZmZmO2ZpbGwtb3BhY2l0eTowLjI1IiBkPSJtIDI0LjIzMTg5OSwyNy40NiBjIDAsLTEuNzkgMS40MiwtMy4yMyAzLjIzLC0zLjIzIDAuNDYsMCAwLjg0LDAuMDkgMS4yMSwwLjIzIGwgMS42NSwtMy45OCAtMC43NSwtMC4yOSAtMS4wNSwtMi44NSBoIC0yLjI3IGwgLTAuMTQsMC4yOSAtMC44NCwyLjQ4IC0xLjU4LDAuNjcgLTIuNjIsLTEuMjggLTEuNTksMS42NSAwLjE1LDAuMjkgMS4yMSwyLjM0IC0wLjY3LDEuNTggLTIuNzcsMC45OCB2IDIuMzMgbCAwLjI5LDAuMDggMi40OCwwLjg0IDAuNjcsMS41OCAtMS4yNSwyLjU4IDEuNjQsMS42NSAwLjI5LC0wLjE1IDIuMzQsLTEuMiAwLjY2LDAuMjkgMS42NSwtMy45OCBjIC0xLjEyLC0wLjUgLTEuOTQsLTEuNjMgLTEuOTQsLTIuOSB6Ii8+JiN4YTsmI3hhOzxwYXRoIGlkPSJwYXRoNjY1NDAiIGlua3NjYXBlOmNvbm5lY3Rvci1jdXJ2YXR1cmU9IjAiIHN0eWxlPSJmaWxsOiM3YTdhN2EiIGQ9Im0gMTUuMTQxODk5LDI2LjgxIC0wLjE5LDAuMDkgLTEuMzgsMC43IC0wLjkzLC0wLjM5IC0wLjU5LC0xLjY1IGggLTEuMzMgbCAtMC4wOCwwLjE5IC0wLjQ4LDEuNDYgLTAuOTM5OTk5OSwwLjM5IC0xLjU0LC0wLjc1IC0wLjk0LDAuOTggMC4wOCwwLjE5IDAuNzEsMS4zOCAtMC4zOSwwLjkzIC0xLjY1LDAuNTkgdiAxLjM3IGwgMC4xOSwwLjA0IDEuNDYsMC40OCAwLjM5LDAuOTQgLTAuNzUsMS41NCAwLjk4LDAuOTggMC4xOSwtMC4wOCAxLjM3LC0wLjcxIDAuOTM5OTk5OSwwLjM5IDAuNTgsMS42NSBoIDEuMzggbCAwLjA0LC0wLjE5IDAuNDgsLTEuNDYgMC45NCwtMC4zOSAxLjYsMC43NSAwLjk4LC0wLjk4IC0wLjg5LC0xLjU0IDAuMzksLTAuOTQgMS42NSwtMC41OCB2IC0xLjM0IGwgLTAuMTksLTAuMDggLTEuNDYsLTAuNDggLTAuMzksLTAuOTQgMC42NiwtMS40MSB6IG0gLTMuNjksNi42NSBjIC0xLjA2LDAgLTEuODk5OTk5OSwtMC44NCAtMS44OTk5OTk5LC0xLjkgMCwtMS4wNiAwLjgzOTk5OTksLTEuODkgMS44OTk5OTk5LC0xLjg5IDEuMDYsMCAxLjg5LDAuODMgMS44OSwxLjg5IDAsMS4wNiAtMC44MywxLjkgLTEuODksMS45IHoiLz4mI3hhOyYjeGE7JiN4YTsmI3hhOzxwYXRoIGlkPSJwYXRoNjY1NTgiIGlua3NjYXBlOmNvbm5lY3Rvci1jdXJ2YXR1cmU9IjAiIHN0eWxlPSJmaWxsOiNmZmZmZmY7ZmlsbC1vcGFjaXR5OjAuMjUiIGQ9Im0gOS41NTE4OTkxLDMxLjU2IGMgMCwtMS4wNiAwLjgzOTk5OTksLTEuODkgMS44OTk5OTk5LC0xLjg5IDAuMjcsMCAwLjQ4LDAuMDQgMC43MSwwLjEyIGwgMC45OCwtMi4zNSAtMC40NCwtMC4xOSAtMC42MywtMS42OSBoIC0xLjMzIGwgLTAuMDgsMC4xOSAtMC40OCwxLjQ2IC0wLjkzOTk5OTksMC4zOSAtMS41NCwtMC43NSAtMC45NCwwLjk4IDAuMDgsMC4xOSAwLjcxLDEuMzggLTAuMzksMC45MyAtMS42NSwwLjU5IHYgMS4zNyBsIDAuMTksMC4wNCAxLjQ2LDAuNDggMC4zOSwwLjk0IC0wLjc1LDEuNTQgMC45OCwwLjk4IDAuMTksLTAuMDggMS4zNywtMC43MSAwLjQsMC4xOSAwLjk3OTk5OTksLTIuMzYgYyAtMC42OSwtMC4zMyAtMS4xNjk5OTk5LC0xIC0xLjE2OTk5OTksLTEuNzUgeiIvPiYjeGE7PC9zdmc+;" vertex="1" parent="1">
          <mxGeometry x="519.0000000000001" y="440" width="38" height="38" as="geometry" />
        </mxCell>
        <mxCell id="cnw9rlaOAe4eeBvIx0O1-3" value="" style="shape=image;verticalLabelPosition=bottom;labelBackgroundColor=#ffffff;verticalAlign=top;aspect=fixed;imageAspect=0;image=data:image/svg+xml,PHN2ZyB4bWxuczpkYz0iaHR0cDovL3B1cmwub3JnL2RjL2VsZW1lbnRzLzEuMS8iIHhtbG5zOmNjPSJodHRwOi8vY3JlYXRpdmVjb21tb25zLm9yZy9ucyMiIHhtbG5zOnJkZj0iaHR0cDovL3d3dy53My5vcmcvMTk5OS8wMi8yMi1yZGYtc3ludGF4LW5zIyIgeG1sbnM6c3ZnPSJodHRwOi8vd3d3LnczLm9yZy8yMDAwL3N2ZyIgeG1sbnM9Imh0dHA6Ly93d3cudzMub3JnLzIwMDAvc3ZnIiB4bWxuczpzb2RpcG9kaT0iaHR0cDovL3NvZGlwb2RpLnNvdXJjZWZvcmdlLm5ldC9EVEQvc29kaXBvZGktMC5kdGQiIHhtbG5zOmlua3NjYXBlPSJodHRwOi8vd3d3Lmlua3NjYXBlLm9yZy9uYW1lc3BhY2VzL2lua3NjYXBlIiB2ZXJzaW9uPSIxLjEiIGlkPSJzdmc2NjU2NSIgaW5rc2NhcGU6dmVyc2lvbj0iMC45Mi4zICgyNDA1NTQ2LCAyMDE4LTAzLTExKSIgc29kaXBvZGk6ZG9jbmFtZT0iYXp1cmVfd2Viam9icy5zdmciIHg9IjBweCIgeT0iMHB4IiB2aWV3Qm94PSIwIDAgMzcuNTUxOSAzNy41MiIgeG1sOnNwYWNlPSJwcmVzZXJ2ZSIgd2lkdGg9IjM3LjU1MTg5OSIgaGVpZ2h0PSIzNy41MiI+PG1ldGFkYXRhIGlkPSJtZXRhZGF0YTIxMTA2Ij48cmRmOlJERj48Y2M6V29yayByZGY6YWJvdXQ9IiI+PGRjOmZvcm1hdD5pbWFnZS9zdmcreG1sPC9kYzpmb3JtYXQ+PGRjOnR5cGUgcmRmOnJlc291cmNlPSJodHRwOi8vcHVybC5vcmcvZGMvZGNtaXR5cGUvU3RpbGxJbWFnZSIvPjxkYzp0aXRsZS8+PC9jYzpXb3JrPjwvcmRmOlJERj48L21ldGFkYXRhPjxkZWZzIGlkPSJkZWZzMjExMDQiLz4mI3hhOzxmaWx0ZXIgaWQ9ImZpbHRlcl8yIj4mI3hhOwk8ZmVHYXVzc2lhbkJsdXIgaWQ9ImZlR2F1c3NpYW5CbHVyNjY0ODQiIHN0ZERldmlhdGlvbj0iMiIvPiYjeGE7PC9maWx0ZXI+JiN4YTs8c29kaXBvZGk6bmFtZWR2aWV3IGJvcmRlcmNvbG9yPSIjNjY2NjY2IiBib3JkZXJvcGFjaXR5PSIxIiBmaXQtbWFyZ2luLWJvdHRvbT0iMCIgZml0LW1hcmdpbi1sZWZ0PSIwIiBmaXQtbWFyZ2luLXJpZ2h0PSIwIiBmaXQtbWFyZ2luLXRvcD0iMCIgZ3JpZHRvbGVyYW5jZT0iMTAiIGd1aWRldG9sZXJhbmNlPSIxMCIgaWQ9Im5hbWVkdmlldzY2NTY3IiBpbmtzY2FwZTpjdXJyZW50LWxheWVyPSJzdmc2NjU2NSIgaW5rc2NhcGU6Y3g9Ii0xOC4yODE4ODgiIGlua3NjYXBlOmN5PSIxNi42Mjk5MDEiIGlua3NjYXBlOnBhZ2VvcGFjaXR5PSIwIiBpbmtzY2FwZTpwYWdlc2hhZG93PSIyIiBpbmtzY2FwZTp3aW5kb3ctaGVpZ2h0PSIxMDE3IiBpbmtzY2FwZTp3aW5kb3ctbWF4aW1pemVkPSIxIiBpbmtzY2FwZTp3aW5kb3ctd2lkdGg9IjE5MjAiIGlua3NjYXBlOndpbmRvdy14PSItOCIgaW5rc2NhcGU6d2luZG93LXk9Ii04IiBpbmtzY2FwZTp6b29tPSIxMC41NjQ5NjgiIG9iamVjdHRvbGVyYW5jZT0iMTAiIHBhZ2Vjb2xvcj0iI2ZmZmZmZiIgc2hvd2dyaWQ9ImZhbHNlIj4mI3hhOwk8L3NvZGlwb2RpOm5hbWVkdmlldz4mI3hhOyYjeGE7PHBhdGggaWQ9InBhdGg2NjQ5NyIgaW5rc2NhcGU6Y29ubmVjdG9yLWN1cnZhdHVyZT0iMCIgc3R5bGU9ImZpbGw6IzU5YjRkOSIgZD0ibSAyNC43NjE4OTksMjcuNiBjIC0yLjc3LDIuMTEgLTYuMDgsMy4xNSAtOS4yOSwzLjE1IC00LjY1LDAgLTkuMjI5OTk5OSwtMi4xIC0xMi4yMjk5OTk5LC02IC01LjI1LC02Ljc1IC0zLjk4LC0xNi40MiAyLjc3LC0yMS42IDIuODYsLTIuMTEgNi4wNzk5OTk5LC0zLjE1IDkuMzc5OTk5OSwtMy4xNSA0LjY0LDAgOS4yMywyLjEgMTIuMjMsNiA1LjE2LDYuNzUgMy44MSwxNi40MiAtMi44NiwyMS42IHoiLz4mI3hhOyYjeGE7PHBhdGggaWQ9InBhdGg2NjUwNSIgaW5rc2NhcGU6Y29ubmVjdG9yLWN1cnZhdHVyZT0iMCIgc3R5bGU9ImZpbGw6I2ZmZmZmZiIgZD0ibSAyNy42MTE4OTksMTcuMjUgYyAwLjM4LC0xLjA0IDAuMjksLTIuMjUgLTAuNDYsLTMuMTUgLTEuMDQsLTEuMzUgLTIuODUsLTEuNjQgLTQuMjcsLTAuODMgLTEuNTgsLTEuNDIgLTMuMjksLTMgLTUuMSwtNC43OSA1LjQ4LC0zIDkuMzcsLTIuNzEgOS42LC0yLjcxIC0wLjY2LC0wLjg0IC0xLjQxLC0xLjU5IC0yLjI1LC0yLjI1IC0yLjM5LC0wLjM4IC02LjA4LC0wLjI5IC0xMC4yNywxLjk2IC0xLjQxLC0xLjQyIC0yLjg1LC0zIC00LjI3LC00LjczIC0wLjY2OTk5OTksMC4yMyAtMS4zNDk5OTk5LDAuNTIgLTIuMDE5OTk5OSwwLjgzIDEuMDQsMS43MyAyLjQ3OTk5OTksMy41MiA0LjEyOTk5OTksNS4yNSAtMS40NCwwLjk2IC0yLjg1OTk5OTksMi4xNyAtNC4yOTk5OTk5LDMuNjcgLTAuMTQsMC4yMyAtMC4zNywwLjM3IC0wLjUyLDAuNiAtMC44MywtMC4xNCAtMS43MywtMC4xNCAtMi41NCwwLjE1IC0xLjM1LC0zIC0xLjI3LC01LjM0IC0xLjA0LC02LjYxIC0wLjUyLDAuNjcgLTEuMDQsMS4zNiAtMS41OCwyLjAyIC0wLjM4LDEuNSAtMC40NiwzLjYxIDAuNiw2LjE1IC0xLjI3LDEuNjUgLTEuMjcsMy45IDAsNS42MiAwLjA4LDAuMTUgMC4yMywwLjMgMC4zOCwwLjM4IC0wLjUzLDEuODcgLTAuODQsMy43NSAtMC45LDUuMzMgMC4xNSwwLjIzIDAuMjMsMC4zOCAwLjM3LDAuNjEgMC43NSwwLjk4IDEuNTksMS43OSAyLjQ4LDIuNTQgLTAuMDgsLTEuNzMgMCwtNC4yMSAxLjA1LC02Ljk4IDAuNzUsMC4wOCAxLjQxLC0wLjA4IDIuMTYsLTAuMzggMC4zOCwwLjM4IDAuODQsMC42NyAxLjI2OTk5OTksMS4wNSAxLjUsMS4yIDMsMi4xIDQuNSwyLjg1IC0wLjA4LDAuNzUgMC4wOSwxLjUgMC42MSwyLjE3IDEuMDQsMS4zNSAyLjkxLDEuNTggNC4yNywwLjYgMC4yOSwtMC4yMyAwLjUyLC0wLjQ2IDAuNjYsLTAuNzUgMi4zNCwwLjUyIDQuNDIsMC42MSA1LjkyLDAuNjEgMC42NywtMC42NyAxLjM2LC0xLjQyIDEuODgsLTIuMTcgMC4wOCwtMC4wOCAwLjA4LC0wLjE1IDAuMTQsLTAuMjMgLTAuOTgsMC4yMyAtMy43NSwwLjYgLTcuNTgsLTAuNTIgLTAuMDgsLTAuNDYgLTAuMjksLTAuODMgLTAuNTIsLTEuMjEgLTAuOTgsLTEuMjcgLTIuNzcsLTEuNTggLTQuMDQsLTAuNjcgLTEuMzYsLTAuNzUgLTIuNzEsLTEuNjQgLTQuMTMsLTIuNzcgLTAuMjksLTAuMjMgLTAuNiwtMC40NiAtMC44MywtMC42NiAwLjg5LC0xLjM2IDAuOTgsLTMuMTUgMC4yMywtNC42NSAwLjE0LC0wLjE1IDAuMzcsLTAuMzcgMC41MiwtMC41MiAxLjM3LC0xLjIxIDIuODcsLTIuNDIgNC4wOCwtMy4yMyAxLjk0LDEuNzkgMy45NiwzLjQ0IDUuODMsNC45NCAtMC41MiwxLjA0IC0wLjQ1LDIuMzkgMC4zOCwzLjM3IDEuMTIsMS40MiAzLjIzLDEuNzMgNC42NSwwLjYxIDAuMDgsLTAuMDkgMC4xNCwtMC4xNSAwLjIyLC0wLjIzIDEuMzYsMC45OCAyLjQ4LDEuNzMgMy4wOSwyLjEgMC4xNCwtMC40NiAwLjI5LC0wLjg5IDAuMzcsLTEuMzUgLTAuNzUsLTAuNDQgLTEuNjQsLTEuMTMgLTIuNzcsLTIuMDIgeiIvPiYjeGE7JiN4YTs8cGF0aCBpZD0icGF0aDY2NTEzIiBpbmtzY2FwZTpjb25uZWN0b3ItY3VydmF0dXJlPSIwIiBzdHlsZT0iZmlsbDojN2E3YTdhIiBkPSJtIDMzLjY3MTg5OSwxOS40MiAtMC4yOSwwLjE0IC0yLjMzLDEuMjEgLTEuNTksLTAuNjYgLTAuOTgsLTIuNzggaCAtMi4yMyBsIC0wLjE0LDAuMyAtMC44NCwyLjQ4IC0xLjU4LDAuNjYgLTIuNjIsLTEuMjcgLTEuNTksMS42NSAwLjE1LDAuMjkgMS4yMSwyLjMzIC0wLjY3LDEuNTkgLTIuNzcsMC45NyB2IDIuMzQgbCAwLjI5LDAuMDggMi40OCwwLjgzIDAuNjcsMS41OSAtMS4yNSwyLjU4IDEuNjQsMS42NSAwLjI5LC0wLjE1IDIuMzQsLTEuMjEgMS41OCwwLjY3IDAuOTgsMi43NyBoIDIuMzMgbCAwLjA5LC0wLjI5IDAuODMsLTIuNDggMS41OCwtMC42NyAyLjcxLDEuMjcgMS42NSwtMS42NCAtMS41LC0yLjYzIDAuNjYsLTEuNTggMi43OCwtMC45OCB2IC0yLjIzIGwgLTAuMywtMC4xNCAtMi40OCwtMC44NCAtMC42NiwtMS41OCAxLjEyLC0yLjQgeiBtIC02LjIxLDExLjI1IGMgLTEuNzksMCAtMy4yMywtMS40MiAtMy4yMywtMy4yMyAwLC0xLjc5IDEuNDIsLTMuMjMgMy4yMywtMy4yMyAxLjgxLDAgMy4yMywxLjQyIDMuMjMsMy4yMyAtMC4wMiwxLjgxIC0xLjQ0LDMuMjMgLTMuMjMsMy4yMyB6Ii8+JiN4YTsmI3hhOyYjeGE7JiN4YTs8cGF0aCBpZD0icGF0aDY2NTMxIiBpbmtzY2FwZTpjb25uZWN0b3ItY3VydmF0dXJlPSIwIiBzdHlsZT0iZmlsbDojZmZmZmZmO2ZpbGwtb3BhY2l0eTowLjI1IiBkPSJtIDI0LjIzMTg5OSwyNy40NiBjIDAsLTEuNzkgMS40MiwtMy4yMyAzLjIzLC0zLjIzIDAuNDYsMCAwLjg0LDAuMDkgMS4yMSwwLjIzIGwgMS42NSwtMy45OCAtMC43NSwtMC4yOSAtMS4wNSwtMi44NSBoIC0yLjI3IGwgLTAuMTQsMC4yOSAtMC44NCwyLjQ4IC0xLjU4LDAuNjcgLTIuNjIsLTEuMjggLTEuNTksMS42NSAwLjE1LDAuMjkgMS4yMSwyLjM0IC0wLjY3LDEuNTggLTIuNzcsMC45OCB2IDIuMzMgbCAwLjI5LDAuMDggMi40OCwwLjg0IDAuNjcsMS41OCAtMS4yNSwyLjU4IDEuNjQsMS42NSAwLjI5LC0wLjE1IDIuMzQsLTEuMiAwLjY2LDAuMjkgMS42NSwtMy45OCBjIC0xLjEyLC0wLjUgLTEuOTQsLTEuNjMgLTEuOTQsLTIuOSB6Ii8+JiN4YTsmI3hhOzxwYXRoIGlkPSJwYXRoNjY1NDAiIGlua3NjYXBlOmNvbm5lY3Rvci1jdXJ2YXR1cmU9IjAiIHN0eWxlPSJmaWxsOiM3YTdhN2EiIGQ9Im0gMTUuMTQxODk5LDI2LjgxIC0wLjE5LDAuMDkgLTEuMzgsMC43IC0wLjkzLC0wLjM5IC0wLjU5LC0xLjY1IGggLTEuMzMgbCAtMC4wOCwwLjE5IC0wLjQ4LDEuNDYgLTAuOTM5OTk5OSwwLjM5IC0xLjU0LC0wLjc1IC0wLjk0LDAuOTggMC4wOCwwLjE5IDAuNzEsMS4zOCAtMC4zOSwwLjkzIC0xLjY1LDAuNTkgdiAxLjM3IGwgMC4xOSwwLjA0IDEuNDYsMC40OCAwLjM5LDAuOTQgLTAuNzUsMS41NCAwLjk4LDAuOTggMC4xOSwtMC4wOCAxLjM3LC0wLjcxIDAuOTM5OTk5OSwwLjM5IDAuNTgsMS42NSBoIDEuMzggbCAwLjA0LC0wLjE5IDAuNDgsLTEuNDYgMC45NCwtMC4zOSAxLjYsMC43NSAwLjk4LC0wLjk4IC0wLjg5LC0xLjU0IDAuMzksLTAuOTQgMS42NSwtMC41OCB2IC0xLjM0IGwgLTAuMTksLTAuMDggLTEuNDYsLTAuNDggLTAuMzksLTAuOTQgMC42NiwtMS40MSB6IG0gLTMuNjksNi42NSBjIC0xLjA2LDAgLTEuODk5OTk5OSwtMC44NCAtMS44OTk5OTk5LC0xLjkgMCwtMS4wNiAwLjgzOTk5OTksLTEuODkgMS44OTk5OTk5LC0xLjg5IDEuMDYsMCAxLjg5LDAuODMgMS44OSwxLjg5IDAsMS4wNiAtMC44MywxLjkgLTEuODksMS45IHoiLz4mI3hhOyYjeGE7JiN4YTsmI3hhOzxwYXRoIGlkPSJwYXRoNjY1NTgiIGlua3NjYXBlOmNvbm5lY3Rvci1jdXJ2YXR1cmU9IjAiIHN0eWxlPSJmaWxsOiNmZmZmZmY7ZmlsbC1vcGFjaXR5OjAuMjUiIGQ9Im0gOS41NTE4OTkxLDMxLjU2IGMgMCwtMS4wNiAwLjgzOTk5OTksLTEuODkgMS44OTk5OTk5LC0xLjg5IDAuMjcsMCAwLjQ4LDAuMDQgMC43MSwwLjEyIGwgMC45OCwtMi4zNSAtMC40NCwtMC4xOSAtMC42MywtMS42OSBoIC0xLjMzIGwgLTAuMDgsMC4xOSAtMC40OCwxLjQ2IC0wLjkzOTk5OTksMC4zOSAtMS41NCwtMC43NSAtMC45NCwwLjk4IDAuMDgsMC4xOSAwLjcxLDEuMzggLTAuMzksMC45MyAtMS42NSwwLjU5IHYgMS4zNyBsIDAuMTksMC4wNCAxLjQ2LDAuNDggMC4zOSwwLjk0IC0wLjc1LDEuNTQgMC45OCwwLjk4IDAuMTksLTAuMDggMS4zNywtMC43MSAwLjQsMC4xOSAwLjk3OTk5OTksLTIuMzYgYyAtMC42OSwtMC4zMyAtMS4xNjk5OTk5LC0xIC0xLjE2OTk5OTksLTEuNzUgeiIvPiYjeGE7PC9zdmc+;" vertex="1" parent="1">
          <mxGeometry x="572.0000000000001" y="440" width="38" height="38" as="geometry" />
        </mxCell>
        <mxCell id="cnw9rlaOAe4eeBvIx0O1-34" style="edgeStyle=orthogonalEdgeStyle;rounded=0;orthogonalLoop=1;jettySize=auto;html=1;exitX=1;exitY=0.5;exitDx=0;exitDy=0;entryX=0.003;entryY=0.429;entryDx=0;entryDy=0;entryPerimeter=0;startArrow=classic;startFill=1;" edge="1" parent="1" source="cnw9rlaOAe4eeBvIx0O1-4" target="cnw9rlaOAe4eeBvIx0O1-7">
          <mxGeometry relative="1" as="geometry" />
        </mxCell>
        <mxCell id="cnw9rlaOAe4eeBvIx0O1-4" value="" style="shape=image;verticalLabelPosition=bottom;labelBackgroundColor=#ffffff;verticalAlign=top;aspect=fixed;imageAspect=0;image=data:image/svg+xml,PHN2ZyB4bWxuczpkYz0iaHR0cDovL3B1cmwub3JnL2RjL2VsZW1lbnRzLzEuMS8iIHhtbG5zOmNjPSJodHRwOi8vY3JlYXRpdmVjb21tb25zLm9yZy9ucyMiIHhtbG5zOnJkZj0iaHR0cDovL3d3dy53My5vcmcvMTk5OS8wMi8yMi1yZGYtc3ludGF4LW5zIyIgeG1sbnM6c3ZnPSJodHRwOi8vd3d3LnczLm9yZy8yMDAwL3N2ZyIgeG1sbnM9Imh0dHA6Ly93d3cudzMub3JnLzIwMDAvc3ZnIiB4bWxuczp4bGluaz0iaHR0cDovL3d3dy53My5vcmcvMTk5OS94bGluayIgeG1sbnM6c29kaXBvZGk9Imh0dHA6Ly9zb2RpcG9kaS5zb3VyY2Vmb3JnZS5uZXQvRFREL3NvZGlwb2RpLTAuZHRkIiB4bWxuczppbmtzY2FwZT0iaHR0cDovL3d3dy5pbmtzY2FwZS5vcmcvbmFtZXNwYWNlcy9pbmtzY2FwZSIgdmVyc2lvbj0iMS4xIiBpZD0iTGF5ZXJfMSIgeD0iMHB4IiB5PSIwcHgiIHZpZXdCb3g9IjAgMCAzNS44MTk5OTYgMjYuMSIgeG1sOnNwYWNlPSJwcmVzZXJ2ZSIgc29kaXBvZGk6ZG9jbmFtZT0iYXZlcmVfdmZ4dC5zdmciIHdpZHRoPSIzNS44MTk5OTYiIGhlaWdodD0iMjYuMSIgaW5rc2NhcGU6dmVyc2lvbj0iMC45Mi4zICgyNDA1NTQ2LCAyMDE4LTAzLTExKSI+PG1ldGFkYXRhIGlkPSJtZXRhZGF0YTMwMzA1Ij48cmRmOlJERj48Y2M6V29yayByZGY6YWJvdXQ9IiI+PGRjOmZvcm1hdD5pbWFnZS9zdmcreG1sPC9kYzpmb3JtYXQ+PGRjOnR5cGUgcmRmOnJlc291cmNlPSJodHRwOi8vcHVybC5vcmcvZGMvZGNtaXR5cGUvU3RpbGxJbWFnZSIvPjxkYzp0aXRsZS8+PC9jYzpXb3JrPjwvcmRmOlJERj48L21ldGFkYXRhPjxkZWZzIGlkPSJkZWZzMzAzMDMiLz48c29kaXBvZGk6bmFtZWR2aWV3IHBhZ2Vjb2xvcj0iI2ZmZmZmZiIgYm9yZGVyY29sb3I9IiM2NjY2NjYiIGJvcmRlcm9wYWNpdHk9IjEiIG9iamVjdHRvbGVyYW5jZT0iMTAiIGdyaWR0b2xlcmFuY2U9IjEwIiBndWlkZXRvbGVyYW5jZT0iMTAiIGlua3NjYXBlOnBhZ2VvcGFjaXR5PSIwIiBpbmtzY2FwZTpwYWdlc2hhZG93PSIyIiBpbmtzY2FwZTp3aW5kb3ctd2lkdGg9IjE5MjAiIGlua3NjYXBlOndpbmRvdy1oZWlnaHQ9IjEwMTciIGlkPSJuYW1lZHZpZXczMDMwMSIgc2hvd2dyaWQ9ImZhbHNlIiBmaXQtbWFyZ2luLXRvcD0iMCIgZml0LW1hcmdpbi1sZWZ0PSIwIiBmaXQtbWFyZ2luLXJpZ2h0PSIwIiBmaXQtbWFyZ2luLWJvdHRvbT0iMCIgaW5rc2NhcGU6em9vbT0iMS4wMzAzMDMiIGlua3NjYXBlOmN4PSIyMjMuMDc1IiBpbmtzY2FwZTpjeT0iLTIwMi43MiIgaW5rc2NhcGU6d2luZG93LXg9Ii04IiBpbmtzY2FwZTp3aW5kb3cteT0iLTgiIGlua3NjYXBlOndpbmRvdy1tYXhpbWl6ZWQ9IjEiIGlua3NjYXBlOmN1cnJlbnQtbGF5ZXI9IkxheWVyXzEiLz4mI3hhOyYjeGE7PGcgaWQ9ImczMDI5OCIgdHJhbnNmb3JtPSJ0cmFuc2xhdGUoLTc0LjMwMDAwMywtMTkxLjkzKSI+JiN4YTsJPGRlZnMgaWQ9ImRlZnMzMDI4MSI+JiN4YTsJCTxyZWN0IGlkPSJTVkdJRF8zXyIgeD0iNzQuMzAwMDAzIiB5PSIxOTEuOTI5OTkiIHdpZHRoPSIzNi44MiIgaGVpZ2h0PSIyOC4zMiIvPiYjeGE7CTwvZGVmcz4mI3hhOwk8Y2xpcFBhdGggaWQ9IlNWR0lEXzRfIj4mI3hhOwkJPHVzZSB4bGluazpocmVmPSIjU1ZHSURfM18iIHN0eWxlPSJvdmVyZmxvdzp2aXNpYmxlIiBpZD0idXNlMzAyODMiIHg9IjAiIHk9IjAiIHdpZHRoPSIxMDAlIiBoZWlnaHQ9IjEwMCUiLz4mI3hhOwk8L2NsaXBQYXRoPiYjeGE7CTxnIGNsaXAtcGF0aD0idXJsKCNTVkdJRF80XykiIGlkPSJnMzAyOTYiPiYjeGE7CQk8ZGVmcyBpZD0iZGVmczMwMjg3Ij4mI3hhOwkJCTxyZWN0IGlkPSJTVkdJRF81XyIgeD0iNzQuMzAwMDAzIiB5PSIxOTEuOTI5OTkiIHdpZHRoPSIzNi44MiIgaGVpZ2h0PSIyOC4zMiIvPiYjeGE7CQk8L2RlZnM+JiN4YTsJCTxjbGlwUGF0aCBpZD0iU1ZHSURfNl8iPiYjeGE7CQkJPHVzZSB4bGluazpocmVmPSIjU1ZHSURfNV8iIHN0eWxlPSJvdmVyZmxvdzp2aXNpYmxlIiBpZD0idXNlMzAyODkiIHg9IjAiIHk9IjAiIHdpZHRoPSIxMDAlIiBoZWlnaHQ9IjEwMCUiLz4mI3hhOwkJPC9jbGlwUGF0aD4mI3hhOwkJPHJlY3QgeD0iODIuNDQwMDAyIiB5PSIyMTAuNTUiIHN0eWxlPSJmaWxsOiMwMDcyYzYiIHdpZHRoPSI1Ljk4OTk5OTgiIGhlaWdodD0iMS41IiBjbGlwLXBhdGg9InVybCgjU1ZHSURfNl8pIiBpZD0icmVjdDMwMjkyIi8+JiN4YTsJCTxwYXRoIHN0eWxlPSJmaWxsOiMwMDcyYzYiIGQ9Im0gMTAxLjkxLDE5OC43IGMgLTAuNDgsMCAtMC45NiwwIC0xLjQ0LDAuMTIgLTEuNDQsLTQuMDEgLTUuMjcsLTYuODkgLTkuNzYsLTYuODkgLTUuNzUsMCAtMTAuNDIsNC42NyAtMTAuNDIsMTAuNDIgMCwwLjMgMCwwLjY2IDAuMDYsMC45NiAtMy40NywwLjY2IC02LjA1LDMuNjUgLTYuMDUsNy4zIDAsNC4wNyAzLjI5LDcuNDIgNy40Myw3LjQyIGggNi43MSB2IC0xLjUgaCAtNi43MSBjIC0zLjI5LDAgLTUuOTMsLTIuNjkgLTUuOTMsLTUuOTMgMCwtMi44NyAyLjA0LC01LjMzIDQuODUsLTUuODcgbCAxLjMyLC0wLjI0IC0wLjEyLC0xLjMyIGMgLTAuMDYsLTAuMzYgLTAuMDYsLTAuNiAtMC4wNiwtMC44NCAwLC00LjkxIDQuMDEsLTguOTIgOC45MywtOC45MiAzLjcxLDAgNy4wNywyLjM0IDguMzksNS44NyBsIDAuNDIsMS4yIDEuMiwtMC4yNCBjIDAuNDIsLTAuMDYgMC44NCwtMC4xMiAxLjIsLTAuMTIgMy43MSwwIDYuNzEsMi45OSA2LjcxLDYuNzEgMCwzLjcxIC0zLDYuNzEgLTYuNzEsNi43MSBIIDgyLjQ0IHYgMS41IGggMTkuNDcgYyA0LjQ5LDAgOC4yMSwtMy43MSA4LjIxLC04LjIgMCwtNC41NSAtMy42NiwtOC4xNCAtOC4yMSwtOC4xNCB6IiBjbGlwLXBhdGg9InVybCgjU1ZHSURfNl8pIiBpZD0icGF0aDMwMjk0IiBpbmtzY2FwZTpjb25uZWN0b3ItY3VydmF0dXJlPSIwIi8+JiN4YTsJPC9nPiYjeGE7PC9nPiYjeGE7PC9zdmc+;" vertex="1" parent="1">
          <mxGeometry x="51.239999999999995" y="379" width="55.38" height="40" as="geometry" />
        </mxCell>
        <mxCell id="cnw9rlaOAe4eeBvIx0O1-5" value="" style="shape=image;verticalLabelPosition=bottom;labelBackgroundColor=#ffffff;verticalAlign=top;aspect=fixed;imageAspect=0;image=data:image/svg+xml,PHN2ZyB4bWxuczpjYz0iaHR0cDovL2NyZWF0aXZlY29tbW9ucy5vcmcvbnMjIiB4bWxuczpkYz0iaHR0cDovL3B1cmwub3JnL2RjL2VsZW1lbnRzLzEuMS8iIHhtbG5zOmlua3NjYXBlPSJodHRwOi8vd3d3Lmlua3NjYXBlLm9yZy9uYW1lc3BhY2VzL2lua3NjYXBlIiB4bWxuczpyZGY9Imh0dHA6Ly93d3cudzMub3JnLzE5OTkvMDIvMjItcmRmLXN5bnRheC1ucyMiIHhtbG5zOnNvZGlwb2RpPSJodHRwOi8vc29kaXBvZGkuc291cmNlZm9yZ2UubmV0L0RURC9zb2RpcG9kaS0wLmR0ZCIgeG1sbnM6c3ZnPSJodHRwOi8vd3d3LnczLm9yZy8yMDAwL3N2ZyIgeG1sbnM9Imh0dHA6Ly93d3cudzMub3JnLzIwMDAvc3ZnIiB4bWxuczp4bGluaz0iaHR0cDovL3d3dy53My5vcmcvMTk5OS94bGluayIgdmVyc2lvbj0iMS4xIiBpZD0ic3ZnNDkwODMiIGlua3NjYXBlOnZlcnNpb249IjAuOTIuMyAoMjQwNTU0NiwgMjAxOC0wMy0xMSkiIHNvZGlwb2RpOmRvY25hbWU9ImFwcF9zZXJ2aWNlX3BsYW5zLnN2ZyIgeD0iMHB4IiB5PSIwcHgiIHZpZXdCb3g9IjAgMCAyNS4xNCAyNS4xMyIgc3R5bGU9ImVuYWJsZS1iYWNrZ3JvdW5kOm5ldyAwIDAgMjUuMTQgMjUuMTM7IiB4bWw6c3BhY2U9InByZXNlcnZlIj4mI3hhOzxzb2RpcG9kaTpuYW1lZHZpZXcgYm9yZGVyY29sb3I9IiM2NjY2NjYiIGJvcmRlcm9wYWNpdHk9IjEiIGZpdC1tYXJnaW4tYm90dG9tPSIwIiBmaXQtbWFyZ2luLWxlZnQ9IjAiIGZpdC1tYXJnaW4tcmlnaHQ9IjAiIGZpdC1tYXJnaW4tdG9wPSIwIiBncmlkdG9sZXJhbmNlPSIxMCIgZ3VpZGV0b2xlcmFuY2U9IjEwIiBpZD0ibmFtZWR2aWV3NDkwODUiIGlua3NjYXBlOmN1cnJlbnQtbGF5ZXI9InN2ZzQ5MDgzIiBpbmtzY2FwZTpjeD0iMTIuMTY0NDY2IiBpbmtzY2FwZTpjeT0iMTQuNDkzNjA4IiBpbmtzY2FwZTpwYWdlb3BhY2l0eT0iMCIgaW5rc2NhcGU6cGFnZXNoYWRvdz0iMiIgaW5rc2NhcGU6d2luZG93LWhlaWdodD0iMTAxNyIgaW5rc2NhcGU6d2luZG93LW1heGltaXplZD0iMSIgaW5rc2NhcGU6d2luZG93LXdpZHRoPSIxOTIwIiBpbmtzY2FwZTp3aW5kb3cteD0iLTgiIGlua3NjYXBlOndpbmRvdy15PSItOCIgaW5rc2NhcGU6em9vbT0iMTYuMjg1MTQ4IiBvYmplY3R0b2xlcmFuY2U9IjEwIiBwYWdlY29sb3I9IiNmZmZmZmYiIHNob3dncmlkPSJmYWxzZSI+JiN4YTsJPC9zb2RpcG9kaTpuYW1lZHZpZXc+JiN4YTs8ZyBpZD0iZzQ5MDgxIiB0cmFuc2Zvcm09InRyYW5zbGF0ZSgwLC0wLjAwNDU0MDUpIj4mI3hhOwk8dGl0bGUgaWQ9InRpdGxlNDkwMzYiPlBhZ2UtMTwvdGl0bGU+JiN4YTsJPGcgaWQ9Imdyb3VwNDcwOS0xIiB0cmFuc2Zvcm09InRyYW5zbGF0ZSgwLC0zLjA5ODczKSI+JiN4YTsJCTx0aXRsZSBpZD0idGl0bGU0OTAzOCI+QXBwIFNlcnZpY2UgcGxhbnM8L3RpdGxlPiYjeGE7CQk8ZyBpZD0ic2hhcGU0NzEwLTIiIHRyYW5zZm9ybT0idHJhbnNsYXRlKDAsLTAuMDA2NzI5NSkiPiYjeGE7CQkJPHRpdGxlIGlkPSJ0aXRsZTQ5MDQwIj5TaGVldC40NzEwPC90aXRsZT4mI3hhOwkJCTxwYXRoIGlkPSJwYXRoNDkwNDIiIGlua3NjYXBlOmNvbm5lY3Rvci1jdXJ2YXR1cmU9IjAiIHN0eWxlPSJmaWxsOiMzRTNFM0U7IiBkPSJNMCwzLjk1YzAtMC40NiwwLjM4LTAuODQsMC44NS0wLjg0aDEzLjAyICAgICBjMC40NywwLDAuODQsMC4zOCwwLjg0LDAuODR2MjMuNDRjMCwwLjQ3LTAuMzcsMC44NC0wLjg0LDAuODRIMC44NUMwLjM4LDI4LjIzLDAsMjcuODYsMCwyNy4zOVYzLjk1eiIvPiYjeGE7CQk8L2c+JiN4YTsJCTxnIGlkPSJzaGFwZTQ3MTEtNCIgdHJhbnNmb3JtPSJ0cmFuc2xhdGUoMi4yNDQ2NiwtMTkuNzI2OSkiPiYjeGE7CQkJPHRpdGxlIGlkPSJ0aXRsZTQ5MDQ1Ij5TaGVldC40NzExPC90aXRsZT4mI3hhOwkJCTxwYXRoIGlkPSJwYXRoNDkwNDciIGlua3NjYXBlOmNvbm5lY3Rvci1jdXJ2YXR1cmU9IjAiIHN0eWxlPSJmaWxsOiMxRTFFMUU7IiBkPSJNMC44NywyNS40OWMwLDAtMC44NywwLTAuODcsMS4yNSAgICAgYzAsMC4yNywwLDAuMjcsMCwwLjI3czAsMS4yMiwwLjg3LDEuMjJjOC41LDAsOC41LDAsOC41LDBzMC44NiwwLDAuODYtMS4yMmMwLTAuMjcsMC0wLjI3LDAtMC4yN3MwLTEuMjUtMC44Ni0xLjI1ICAgICBjLTMuOTUsMC0zLjk1LDAtMy45NSwwSDAuODd6Ii8+JiN4YTsJCTwvZz4mI3hhOwkJPGcgaWQ9InNoYXBlNDcxMi02IiB0cmFuc2Zvcm09InRyYW5zbGF0ZSgyLjQ5NDA2LC0xOS44MTAxKSI+JiN4YTsJCQk8dGl0bGUgaWQ9InRpdGxlNDkwNTAiPlNoZWV0LjQ3MTI8L3RpdGxlPiYjeGE7CQkJPHBhdGggaWQ9InBhdGg0OTA1MiIgaW5rc2NhcGU6Y29ubmVjdG9yLWN1cnZhdHVyZT0iMCIgc3R5bGU9ImZpbGw6I0I4RDQzMjsiIGQ9Ik0wLDI2LjkzYzAtMC42OCwwLjU4LTEuMjgsMS4yNi0xLjI4ICAgICBjMC42OSwwLDEuMjMsMC42LDEuMjMsMS4yOGMwLDAuNzQtMC41NCwxLjMtMS4yMywxLjNDMC41OCwyOC4yMywwLDI3LjY3LDAsMjYuOTN6Ii8+JiN4YTsJCTwvZz4mI3hhOwkJPGcgaWQ9InNoYXBlNDcxMy04IiB0cmFuc2Zvcm09InRyYW5zbGF0ZSgyLjI0NDY2LC0xNS4wNjczKSI+JiN4YTsJCQk8dGl0bGUgaWQ9InRpdGxlNDkwNTUiPlNoZWV0LjQ3MTM8L3RpdGxlPiYjeGE7CQkJPHBhdGggaWQ9InBhdGg0OTA1NyIgaW5rc2NhcGU6Y29ubmVjdG9yLWN1cnZhdHVyZT0iMCIgc3R5bGU9ImZpbGw6IzFFMUUxRTsiIGQ9Ik0wLjg3LDI1LjQ5YzAsMC0wLjg3LDAtMC44NywxLjI1ICAgICBjMCwwLjI3LDAsMC4yNywwLDAuMjdzMCwxLjIyLDAuODcsMS4yMmM4LjUsMCw4LjUsMCw4LjUsMHMwLjg2LDAsMC44Ni0xLjIyYzAtMC4yNywwLTAuMjcsMC0wLjI3czAtMS4yNS0wLjg2LTEuMjUgICAgIGMtMy45NSwwLTMuOTUsMC0zLjk1LDBIMC44N3oiLz4mI3hhOwkJPC9nPiYjeGE7CQk8ZyBpZD0ic2hhcGU0NzE0LTEwIiB0cmFuc2Zvcm09InRyYW5zbGF0ZSgyLjQ5NDA2LC0xNS4xNTA1KSI+JiN4YTsJCQk8dGl0bGUgaWQ9InRpdGxlNDkwNjAiPlNoZWV0LjQ3MTQ8L3RpdGxlPiYjeGE7CQkJPHBhdGggaWQ9InBhdGg0OTA2MiIgaW5rc2NhcGU6Y29ubmVjdG9yLWN1cnZhdHVyZT0iMCIgc3R5bGU9ImZpbGw6I0I4RDQzMjsiIGQ9Ik0wLDI2LjkzYzAtMC42OCwwLjU4LTEuMjgsMS4yNi0xLjI4ICAgICBjMC42OSwwLDEuMjMsMC42LDEuMjMsMS4yOGMwLDAuNzQtMC41NCwxLjMtMS4yMywxLjNDMC41OCwyOC4yMywwLDI3LjY3LDAsMjYuOTN6Ii8+JiN4YTsJCTwvZz4mI3hhOwkJPGcgaWQ9InNoYXBlNDcxNS0xMiIgdHJhbnNmb3JtPSJ0cmFuc2xhdGUoMi4yNDQ2NiwtMTAuNDA3NykiPiYjeGE7CQkJPHRpdGxlIGlkPSJ0aXRsZTQ5MDY1Ij5TaGVldC40NzE1PC90aXRsZT4mI3hhOwkJCTxwYXRoIGlkPSJwYXRoNDkwNjciIGlua3NjYXBlOmNvbm5lY3Rvci1jdXJ2YXR1cmU9IjAiIHN0eWxlPSJmaWxsOiMxRTFFMUU7IiBkPSJNMC44NywyNS40MWMwLDAtMC44NywwLTAuODcsMS4yOCAgICAgYzAsMC4yOCwwLDAuMjgsMCwwLjI4czAsMS4yNiwwLjg3LDEuMjZjOC41LDAsOC41LDAsOC41LDBzMC44NiwwLDAuODYtMS4yNmMwLTAuMjgsMC0wLjI4LDAtMC4yOHMwLTEuMjgtMC44Ni0xLjI4ICAgICBjLTMuOTUsMC0zLjk1LDAtMy45NSwwSDAuODd6Ii8+JiN4YTsJCTwvZz4mI3hhOwkJPGcgaWQ9InNoYXBlNDcxNi0xNCIgdHJhbnNmb3JtPSJ0cmFuc2xhdGUoMi40OTQwNiwtMTAuNDkwOSkiPiYjeGE7CQkJPHRpdGxlIGlkPSJ0aXRsZTQ5MDcwIj5TaGVldC40NzE2PC90aXRsZT4mI3hhOwkJCTxwYXRoIGlkPSJwYXRoNDkwNzIiIGlua3NjYXBlOmNvbm5lY3Rvci1jdXJ2YXR1cmU9IjAiIHN0eWxlPSJmaWxsOiNCOEQ0MzI7IiBkPSJNMCwyNi45M2MwLTAuNjgsMC41OC0xLjI4LDEuMjYtMS4yOCAgICAgYzAuNjksMCwxLjIzLDAuNiwxLjIzLDEuMjhjMCwwLjc0LTAuNTQsMS4zLTEuMjMsMS4zQzAuNTgsMjguMjMsMCwyNy42NywwLDI2LjkzeiIvPiYjeGE7CQk8L2c+JiN4YTsJCTxnIGlkPSJzaGFwZTQ3MTctMTYiIHRyYW5zZm9ybT0idHJhbnNsYXRlKDQuMTk2OCkiPiYjeGE7CQkJPHRpdGxlIGlkPSJ0aXRsZTQ5MDc1Ij5DbG91ZCAjNjwvdGl0bGU+JiN4YTsJCQk8cGF0aCBpZD0icGF0aDQ5MDc3IiBpbmtzY2FwZTpjb25uZWN0b3ItY3VydmF0dXJlPSIwIiBzdHlsZT0iZmlsbDojNTlCNEQ5OyIgZD0iTTIwLjk0LDI1Ljg0YzAtMS4zNi0xLjEyLTIuNDgtMi40LTIuNDggICAgIGMtMC4wOCwwLTAuMTYsMC0wLjMyLDBjMC4xNi0wLjU2LDAuMjQtMS4xMiwwLjI0LTEuNzZjMC0zLjYtMi44OC02LjU1LTYuNDctNi41NWMtMi44OCwwLTUuMjgsMS44NC02LjE2LDQuNDcgICAgIGMtMC40OC0wLjE2LTAuOTUtMC4yNC0xLjQzLTAuMjRjLTIuNDgsMC00LjQsMi00LjQsNC40OHMyLDQuNDcsNC40LDQuNDdoMTQuMzhDMTkuOTgsMjguMTUsMjAuOTQsMjcuMTIsMjAuOTQsMjUuODR6Ii8+JiN4YTsJCTwvZz4mI3hhOwk8L2c+JiN4YTs8L2c+JiN4YTs8L3N2Zz4=;" vertex="1" parent="1">
          <mxGeometry x="420" y="290" width="55" height="55" as="geometry" />
        </mxCell>
        <mxCell id="cnw9rlaOAe4eeBvIx0O1-6" value="" style="shape=image;verticalLabelPosition=bottom;labelBackgroundColor=#ffffff;verticalAlign=top;aspect=fixed;imageAspect=0;image=data:image/svg+xml,PHN2ZyB4bWxuczpjYz0iaHR0cDovL2NyZWF0aXZlY29tbW9ucy5vcmcvbnMjIiB4bWxuczpkYz0iaHR0cDovL3B1cmwub3JnL2RjL2VsZW1lbnRzLzEuMS8iIHhtbG5zOmlua3NjYXBlPSJodHRwOi8vd3d3Lmlua3NjYXBlLm9yZy9uYW1lc3BhY2VzL2lua3NjYXBlIiB4bWxuczpyZGY9Imh0dHA6Ly93d3cudzMub3JnLzE5OTkvMDIvMjItcmRmLXN5bnRheC1ucyMiIHhtbG5zOnNvZGlwb2RpPSJodHRwOi8vc29kaXBvZGkuc291cmNlZm9yZ2UubmV0L0RURC9zb2RpcG9kaS0wLmR0ZCIgeG1sbnM6c3ZnPSJodHRwOi8vd3d3LnczLm9yZy8yMDAwL3N2ZyIgeG1sbnM9Imh0dHA6Ly93d3cudzMub3JnLzIwMDAvc3ZnIiB4bWxuczp4bGluaz0iaHR0cDovL3d3dy53My5vcmcvMTk5OS94bGluayIgdmVyc2lvbj0iMS4xIiBpZD0ic3ZnNjA4MDMiIGlua3NjYXBlOnZlcnNpb249IjAuOTIuMyAoMjQwNTU0NiwgMjAxOC0wMy0xMSkiIHNvZGlwb2RpOmRvY25hbWU9ImF6dXJlX3BvcnRhbF9yZXNvdXJjZV9ncm91cHMuc3ZnIiB4PSIwcHgiIHk9IjBweCIgdmlld0JveD0iMCAwIDMwLjczIDI1LjgzIiBzdHlsZT0iZW5hYmxlLWJhY2tncm91bmQ6bmV3IDAgMCAzMC43MyAyNS44MzsiIHhtbDpzcGFjZT0icHJlc2VydmUiPiYjeGE7PHNvZGlwb2RpOm5hbWVkdmlldyBib3JkZXJjb2xvcj0iIzY2NjY2NiIgYm9yZGVyb3BhY2l0eT0iMSIgZml0LW1hcmdpbi1ib3R0b209IjAiIGZpdC1tYXJnaW4tbGVmdD0iMCIgZml0LW1hcmdpbi1yaWdodD0iMCIgZml0LW1hcmdpbi10b3A9IjAiIGdyaWR0b2xlcmFuY2U9IjEwIiBndWlkZXRvbGVyYW5jZT0iMTAiIGlkPSJuYW1lZHZpZXc2MDgwNSIgaW5rc2NhcGU6Y3VycmVudC1sYXllcj0ic3ZnNjA4MDMiIGlua3NjYXBlOmN4PSIxMi40OTE3MjQiIGlua3NjYXBlOmN5PSIxNi45Mjk2NTQiIGlua3NjYXBlOnBhZ2VvcGFjaXR5PSIwIiBpbmtzY2FwZTpwYWdlc2hhZG93PSIyIiBpbmtzY2FwZTp3aW5kb3ctaGVpZ2h0PSIxMDE3IiBpbmtzY2FwZTp3aW5kb3ctbWF4aW1pemVkPSIxIiBpbmtzY2FwZTp3aW5kb3ctd2lkdGg9IjE5MjAiIGlua3NjYXBlOndpbmRvdy14PSItOCIgaW5rc2NhcGU6d2luZG93LXk9Ii04IiBpbmtzY2FwZTp6b29tPSIxNy43OTg0MjciIG9iamVjdHRvbGVyYW5jZT0iMTAiIHBhZ2Vjb2xvcj0iI2ZmZmZmZiIgc2hvd2dyaWQ9ImZhbHNlIj4mI3hhOwk8L3NvZGlwb2RpOm5hbWVkdmlldz4mI3hhOzxnIGlkPSJnNjA4MDEiIHRyYW5zZm9ybT0idHJhbnNsYXRlKDAsLTMuNzk1ODg0NmUtNSkiPiYjeGE7CTx0aXRsZSBpZD0idGl0bGU2MDc3MSI+UGFnZS0xPC90aXRsZT4mI3hhOwk8ZyBpZD0iZ3JvdXA0MzAyLTEiPiYjeGE7CQk8dGl0bGUgaWQ9InRpdGxlNjA3NzMiPkF6dXJlIFBvcnRhbCAtIFJlc291cmNlIGdyb3VwczwvdGl0bGU+JiN4YTsJCTxnIGlkPSJzaGFwZTQzMDMtMiIgdHJhbnNmb3JtPSJ0cmFuc2xhdGUoNy41MDg3LC0xMy44NTYxKSI+JiN4YTsJCQk8dGl0bGUgaWQ9InRpdGxlNjA3NzUiPlNoZWV0LjQzMDM8L3RpdGxlPiYjeGE7CQkJPHBhdGggaWQ9InBhdGg2MDc3NyIgaW5rc2NhcGU6Y29ubmVjdG9yLWN1cnZhdHVyZT0iMCIgc3R5bGU9ImZpbGw6IzAwNzVDOTsiIGQ9Ik03LjksMjUuODNjLTAuMDQsMC0wLjA3LDAtMC4xMSwwICAgICBjLTcuNjYtNC4zNy03LjY2LTQuMzctNy42Ni00LjM3QzAuMDQsMjEuNDIsMCwyMS4zNCwwLDIxLjI1YzAtMC4wNywwLjA0LTAuMTQsMC4xMy0wLjE5YzcuNTctNC4zNCw3LjU3LTQuMzQsNy41Ny00LjM0ICAgICBjMC4wOS0wLjA1LDAuMTYtMC4wNSwwLjI1LDBjNy42NSw0LjM5LDcuNjUsNC4zOSw3LjY1LDQuMzljMC4wOSwwLjAzLDAuMTIsMC4xMSwwLjEyLDAuMTljMCwwLjA5LTAuMDMsMC4xNi0wLjEyLDAuMiAgICAgYy03LjYxLDQuMzMtNy42MSw0LjMzLTcuNjEsNC4zM0M3Ljk1LDI1LjgzLDcuOTUsMjUuODMsNy45LDI1LjgzeiIvPiYjeGE7CQk8L2c+JiN4YTsJCTxnIGlkPSJzaGFwZTQzMDQtNCIgdHJhbnNmb3JtPSJ0cmFuc2xhdGUoNi4zMzU0NywtMy4wNTMwNSkiPiYjeGE7CQkJPHRpdGxlIGlkPSJ0aXRsZTYwNzgwIj5TaGVldC40MzA0PC90aXRsZT4mI3hhOwkJCTxwYXRoIGlkPSJwYXRoNjA3ODIiIGlua3NjYXBlOmNvbm5lY3Rvci1jdXJ2YXR1cmU9IjAiIHN0eWxlPSJmaWxsOiMwMEFFRUY7IiBkPSJNNy45OCwyNS44M2MtMC4wNSwwLTAuMDktMC4wMy0wLjEzLTAuMDMgICAgIGMtNy43Mi00LjM3LTcuNzItNC4zNy03LjcyLTQuMzdDMC4wNCwyMS40LDAsMjEuMzEsMCwyMS4yNGMwLTguNzgsMC04Ljc4LDAtOC43OGMwLTAuMDksMC4wNC0wLjE2LDAuMTMtMC4yICAgICBjMC4wOC0wLjA1LDAuMTYtMC4wNSwwLjI1LDBjNy43Miw0LjM3LDcuNzIsNC4zNyw3LjcyLDQuMzdjMC4wOCwwLjAzLDAuMTEsMC4xMiwwLjExLDAuMTljMCw4Ljc4LDAsOC43OCwwLDguNzggICAgIGMwLDAuMDktMC4wMywwLjE2LTAuMTEsMC4yQzguMDUsMjUuOCw4LjAyLDI1LjgzLDcuOTgsMjUuODN6Ii8+JiN4YTsJCTwvZz4mI3hhOwkJPGcgaWQ9InNoYXBlNDMwNS02IiB0cmFuc2Zvcm09InRyYW5zbGF0ZSgxNi4xOTA2LC0zLjA1MzA1KSI+JiN4YTsJCQk8dGl0bGUgaWQ9InRpdGxlNjA3ODUiPlNoZWV0LjQzMDU8L3RpdGxlPiYjeGE7CQkJPHBhdGggaWQ9InBhdGg2MDc4NyIgaW5rc2NhcGU6Y29ubmVjdG9yLWN1cnZhdHVyZT0iMCIgc3R5bGU9ImZpbGw6IzJCQUFFMTsiIGQ9Ik0wLjI1LDI1LjgzYy0wLjA0LDAtMC4wNy0wLjAzLTAuMTItMC4wMyAgICAgQzAuMDQsMjUuNzYsMCwyNS42OSwwLDI1LjZjMC04Ljc2LDAtOC43NiwwLTguNzZjMC0wLjA4LDAuMDQtMC4xNywwLjEzLTAuMmM3LjcyLTQuMzgsNy43Mi00LjM4LDcuNzItNC4zOCAgICAgYzAuMDgtMC4wNSwwLjE3LTAuMDUsMC4yNSwwYzAuMDQsMC4wNCwwLjExLDAuMTEsMC4xMSwwLjJjMCw4Ljc2LDAsOC43NiwwLDguNzZjMCwwLjA4LTAuMDcsMC4xNy0wLjExLDAuMiAgICAgQzAuMzgsMjUuOCwwLjM4LDI1LjgsMC4zOCwyNS44QzAuMzQsMjUuOCwwLjI5LDI1LjgzLDAuMjUsMjUuODN6Ii8+JiN4YTsJCTwvZz4mI3hhOwkJPGcgaWQ9InNoYXBlNDMwNi04IiB0cmFuc2Zvcm09InRyYW5zbGF0ZSgyMy40NjQ3KSI+JiN4YTsJCQk8dGl0bGUgaWQ9InRpdGxlNjA3OTAiPlNoZWV0LjQzMDY8L3RpdGxlPiYjeGE7CQkJPHBhdGggaWQ9InBhdGg2MDc5MiIgaW5rc2NhcGU6Y29ubmVjdG9yLWN1cnZhdHVyZT0iMCIgc3R5bGU9ImZpbGw6IzkzOTU5ODsiIGQ9Ik00LjQ3LDBDMCwwLDAsMCwwLDBjMCwxLjI2LDAsMS4yNiwwLDEuMjYgICAgIGM0LjQ3LDAsNC40NywwLDQuNDcsMGMwLjg3LDAsMS41OSwwLjcyLDEuNTksMS41N2MwLDIwLjE5LDAsMjAuMTksMCwyMC4xOWMwLDAuODgtMC43MiwxLjU3LTEuNTksMS41N2MtNC40NywwLTQuNDcsMC00LjQ3LDAgICAgIGMwLDEuMjQsMCwxLjI0LDAsMS4yNGM0LjQ3LDAsNC40NywwLDQuNDcsMGMxLjU0LDAsMi44LTEuMjQsMi44LTIuODFjMC0yMC4xOSwwLTIwLjE5LDAtMjAuMTlDNy4yNywxLjMxLDYuMDEsMCw0LjQ3LDB6Ii8+JiN4YTsJCTwvZz4mI3hhOwkJPGcgaWQ9InNoYXBlNDMwNy0xMCI+JiN4YTsJCQk8dGl0bGUgaWQ9InRpdGxlNjA3OTUiPlNoZWV0LjQzMDc8L3RpdGxlPiYjeGE7CQkJPHBhdGggaWQ9InBhdGg2MDc5NyIgaW5rc2NhcGU6Y29ubmVjdG9yLWN1cnZhdHVyZT0iMCIgc3R5bGU9ImZpbGw6IzkzOTU5ODsiIGQ9Ik0yLjgyLDI0LjU5Yy0wLjg3LDAtMS41OS0wLjY5LTEuNTktMS41NyAgICAgYzAtMjAuMTksMC0yMC4xOSwwLTIwLjE5YzAtMC44NSwwLjcyLTEuNTcsMS41OS0xLjU3YzQuNDUsMCw0LjQ1LDAsNC40NSwwYzAtMS4yNiwwLTEuMjYsMC0xLjI2QzIuODIsMCwyLjgyLDAsMi44MiwwICAgICBDMS4yOCwwLDAsMS4zMSwwLDIuODNjMCwyMC4xOSwwLDIwLjE5LDAsMjAuMTljMCwxLjU3LDEuMjgsMi44MSwyLjgyLDIuODFjNC40NSwwLDQuNDUsMCw0LjQ1LDBjMC0xLjI0LDAtMS4yNCwwLTEuMjRIMi44MnoiLz4mI3hhOwkJPC9nPiYjeGE7CTwvZz4mI3hhOzwvZz4mI3hhOzwvc3ZnPg==;shadow=1;" vertex="1" parent="1">
          <mxGeometry x="970" y="590" width="47.69" height="40" as="geometry" />
        </mxCell>
        <mxCell id="cnw9rlaOAe4eeBvIx0O1-7" value="" style="whiteSpace=wrap;html=1;fillColor=none;dashed=1;dashPattern=8 8;" vertex="1" parent="1">
          <mxGeometry x="350" y="278" width="360" height="282" as="geometry" />
        </mxCell>
        <mxCell id="cnw9rlaOAe4eeBvIx0O1-8" value="App Service Plan" style="text;strokeColor=none;align=center;fillColor=none;html=1;verticalAlign=middle;whiteSpace=wrap;rounded=0;" vertex="1" parent="1">
          <mxGeometry x="390" y="349" width="100" height="30" as="geometry" />
        </mxCell>
        <mxCell id="cnw9rlaOAe4eeBvIx0O1-9" value="App Service Web App" style="text;strokeColor=none;align=center;fillColor=none;html=1;verticalAlign=middle;whiteSpace=wrap;rounded=0;" vertex="1" parent="1">
          <mxGeometry x="531" y="349" width="120" height="30" as="geometry" />
        </mxCell>
        <mxCell id="cnw9rlaOAe4eeBvIx0O1-10" value="DEV" style="text;strokeColor=none;align=center;fillColor=none;html=1;verticalAlign=middle;whiteSpace=wrap;rounded=0;" vertex="1" parent="1">
          <mxGeometry x="507" y="478" width="56" height="30" as="geometry" />
        </mxCell>
        <mxCell id="cnw9rlaOAe4eeBvIx0O1-11" value="" style="shape=image;verticalLabelPosition=bottom;labelBackgroundColor=#ffffff;verticalAlign=top;aspect=fixed;imageAspect=0;image=data:image/svg+xml,PHN2ZyB4bWxuczpkYz0iaHR0cDovL3B1cmwub3JnL2RjL2VsZW1lbnRzLzEuMS8iIHhtbG5zOmNjPSJodHRwOi8vY3JlYXRpdmVjb21tb25zLm9yZy9ucyMiIHhtbG5zOnJkZj0iaHR0cDovL3d3dy53My5vcmcvMTk5OS8wMi8yMi1yZGYtc3ludGF4LW5zIyIgeG1sbnM6c3ZnPSJodHRwOi8vd3d3LnczLm9yZy8yMDAwL3N2ZyIgeG1sbnM9Imh0dHA6Ly93d3cudzMub3JnLzIwMDAvc3ZnIiB4bWxuczpzb2RpcG9kaT0iaHR0cDovL3NvZGlwb2RpLnNvdXJjZWZvcmdlLm5ldC9EVEQvc29kaXBvZGktMC5kdGQiIHhtbG5zOmlua3NjYXBlPSJodHRwOi8vd3d3Lmlua3NjYXBlLm9yZy9uYW1lc3BhY2VzL2lua3NjYXBlIiB2ZXJzaW9uPSIxLjEiIGlkPSJzdmc2NjU2NSIgaW5rc2NhcGU6dmVyc2lvbj0iMC45Mi4zICgyNDA1NTQ2LCAyMDE4LTAzLTExKSIgc29kaXBvZGk6ZG9jbmFtZT0iYXp1cmVfd2Viam9icy5zdmciIHg9IjBweCIgeT0iMHB4IiB2aWV3Qm94PSIwIDAgMzcuNTUxOSAzNy41MiIgeG1sOnNwYWNlPSJwcmVzZXJ2ZSIgd2lkdGg9IjM3LjU1MTg5OSIgaGVpZ2h0PSIzNy41MiI+PG1ldGFkYXRhIGlkPSJtZXRhZGF0YTIxMTA2Ij48cmRmOlJERj48Y2M6V29yayByZGY6YWJvdXQ9IiI+PGRjOmZvcm1hdD5pbWFnZS9zdmcreG1sPC9kYzpmb3JtYXQ+PGRjOnR5cGUgcmRmOnJlc291cmNlPSJodHRwOi8vcHVybC5vcmcvZGMvZGNtaXR5cGUvU3RpbGxJbWFnZSIvPjxkYzp0aXRsZS8+PC9jYzpXb3JrPjwvcmRmOlJERj48L21ldGFkYXRhPjxkZWZzIGlkPSJkZWZzMjExMDQiLz4mI3hhOzxmaWx0ZXIgaWQ9ImZpbHRlcl8yIj4mI3hhOwk8ZmVHYXVzc2lhbkJsdXIgaWQ9ImZlR2F1c3NpYW5CbHVyNjY0ODQiIHN0ZERldmlhdGlvbj0iMiIvPiYjeGE7PC9maWx0ZXI+JiN4YTs8c29kaXBvZGk6bmFtZWR2aWV3IGJvcmRlcmNvbG9yPSIjNjY2NjY2IiBib3JkZXJvcGFjaXR5PSIxIiBmaXQtbWFyZ2luLWJvdHRvbT0iMCIgZml0LW1hcmdpbi1sZWZ0PSIwIiBmaXQtbWFyZ2luLXJpZ2h0PSIwIiBmaXQtbWFyZ2luLXRvcD0iMCIgZ3JpZHRvbGVyYW5jZT0iMTAiIGd1aWRldG9sZXJhbmNlPSIxMCIgaWQ9Im5hbWVkdmlldzY2NTY3IiBpbmtzY2FwZTpjdXJyZW50LWxheWVyPSJzdmc2NjU2NSIgaW5rc2NhcGU6Y3g9Ii0xOC4yODE4ODgiIGlua3NjYXBlOmN5PSIxNi42Mjk5MDEiIGlua3NjYXBlOnBhZ2VvcGFjaXR5PSIwIiBpbmtzY2FwZTpwYWdlc2hhZG93PSIyIiBpbmtzY2FwZTp3aW5kb3ctaGVpZ2h0PSIxMDE3IiBpbmtzY2FwZTp3aW5kb3ctbWF4aW1pemVkPSIxIiBpbmtzY2FwZTp3aW5kb3ctd2lkdGg9IjE5MjAiIGlua3NjYXBlOndpbmRvdy14PSItOCIgaW5rc2NhcGU6d2luZG93LXk9Ii04IiBpbmtzY2FwZTp6b29tPSIxMC41NjQ5NjgiIG9iamVjdHRvbGVyYW5jZT0iMTAiIHBhZ2Vjb2xvcj0iI2ZmZmZmZiIgc2hvd2dyaWQ9ImZhbHNlIj4mI3hhOwk8L3NvZGlwb2RpOm5hbWVkdmlldz4mI3hhOyYjeGE7PHBhdGggaWQ9InBhdGg2NjQ5NyIgaW5rc2NhcGU6Y29ubmVjdG9yLWN1cnZhdHVyZT0iMCIgc3R5bGU9ImZpbGw6IzU5YjRkOSIgZD0ibSAyNC43NjE4OTksMjcuNiBjIC0yLjc3LDIuMTEgLTYuMDgsMy4xNSAtOS4yOSwzLjE1IC00LjY1LDAgLTkuMjI5OTk5OSwtMi4xIC0xMi4yMjk5OTk5LC02IC01LjI1LC02Ljc1IC0zLjk4LC0xNi40MiAyLjc3LC0yMS42IDIuODYsLTIuMTEgNi4wNzk5OTk5LC0zLjE1IDkuMzc5OTk5OSwtMy4xNSA0LjY0LDAgOS4yMywyLjEgMTIuMjMsNiA1LjE2LDYuNzUgMy44MSwxNi40MiAtMi44NiwyMS42IHoiLz4mI3hhOyYjeGE7PHBhdGggaWQ9InBhdGg2NjUwNSIgaW5rc2NhcGU6Y29ubmVjdG9yLWN1cnZhdHVyZT0iMCIgc3R5bGU9ImZpbGw6I2ZmZmZmZiIgZD0ibSAyNy42MTE4OTksMTcuMjUgYyAwLjM4LC0xLjA0IDAuMjksLTIuMjUgLTAuNDYsLTMuMTUgLTEuMDQsLTEuMzUgLTIuODUsLTEuNjQgLTQuMjcsLTAuODMgLTEuNTgsLTEuNDIgLTMuMjksLTMgLTUuMSwtNC43OSA1LjQ4LC0zIDkuMzcsLTIuNzEgOS42LC0yLjcxIC0wLjY2LC0wLjg0IC0xLjQxLC0xLjU5IC0yLjI1LC0yLjI1IC0yLjM5LC0wLjM4IC02LjA4LC0wLjI5IC0xMC4yNywxLjk2IC0xLjQxLC0xLjQyIC0yLjg1LC0zIC00LjI3LC00LjczIC0wLjY2OTk5OTksMC4yMyAtMS4zNDk5OTk5LDAuNTIgLTIuMDE5OTk5OSwwLjgzIDEuMDQsMS43MyAyLjQ3OTk5OTksMy41MiA0LjEyOTk5OTksNS4yNSAtMS40NCwwLjk2IC0yLjg1OTk5OTksMi4xNyAtNC4yOTk5OTk5LDMuNjcgLTAuMTQsMC4yMyAtMC4zNywwLjM3IC0wLjUyLDAuNiAtMC44MywtMC4xNCAtMS43MywtMC4xNCAtMi41NCwwLjE1IC0xLjM1LC0zIC0xLjI3LC01LjM0IC0xLjA0LC02LjYxIC0wLjUyLDAuNjcgLTEuMDQsMS4zNiAtMS41OCwyLjAyIC0wLjM4LDEuNSAtMC40NiwzLjYxIDAuNiw2LjE1IC0xLjI3LDEuNjUgLTEuMjcsMy45IDAsNS42MiAwLjA4LDAuMTUgMC4yMywwLjMgMC4zOCwwLjM4IC0wLjUzLDEuODcgLTAuODQsMy43NSAtMC45LDUuMzMgMC4xNSwwLjIzIDAuMjMsMC4zOCAwLjM3LDAuNjEgMC43NSwwLjk4IDEuNTksMS43OSAyLjQ4LDIuNTQgLTAuMDgsLTEuNzMgMCwtNC4yMSAxLjA1LC02Ljk4IDAuNzUsMC4wOCAxLjQxLC0wLjA4IDIuMTYsLTAuMzggMC4zOCwwLjM4IDAuODQsMC42NyAxLjI2OTk5OTksMS4wNSAxLjUsMS4yIDMsMi4xIDQuNSwyLjg1IC0wLjA4LDAuNzUgMC4wOSwxLjUgMC42MSwyLjE3IDEuMDQsMS4zNSAyLjkxLDEuNTggNC4yNywwLjYgMC4yOSwtMC4yMyAwLjUyLC0wLjQ2IDAuNjYsLTAuNzUgMi4zNCwwLjUyIDQuNDIsMC42MSA1LjkyLDAuNjEgMC42NywtMC42NyAxLjM2LC0xLjQyIDEuODgsLTIuMTcgMC4wOCwtMC4wOCAwLjA4LC0wLjE1IDAuMTQsLTAuMjMgLTAuOTgsMC4yMyAtMy43NSwwLjYgLTcuNTgsLTAuNTIgLTAuMDgsLTAuNDYgLTAuMjksLTAuODMgLTAuNTIsLTEuMjEgLTAuOTgsLTEuMjcgLTIuNzcsLTEuNTggLTQuMDQsLTAuNjcgLTEuMzYsLTAuNzUgLTIuNzEsLTEuNjQgLTQuMTMsLTIuNzcgLTAuMjksLTAuMjMgLTAuNiwtMC40NiAtMC44MywtMC42NiAwLjg5LC0xLjM2IDAuOTgsLTMuMTUgMC4yMywtNC42NSAwLjE0LC0wLjE1IDAuMzcsLTAuMzcgMC41MiwtMC41MiAxLjM3LC0xLjIxIDIuODcsLTIuNDIgNC4wOCwtMy4yMyAxLjk0LDEuNzkgMy45NiwzLjQ0IDUuODMsNC45NCAtMC41MiwxLjA0IC0wLjQ1LDIuMzkgMC4zOCwzLjM3IDEuMTIsMS40MiAzLjIzLDEuNzMgNC42NSwwLjYxIDAuMDgsLTAuMDkgMC4xNCwtMC4xNSAwLjIyLC0wLjIzIDEuMzYsMC45OCAyLjQ4LDEuNzMgMy4wOSwyLjEgMC4xNCwtMC40NiAwLjI5LC0wLjg5IDAuMzcsLTEuMzUgLTAuNzUsLTAuNDQgLTEuNjQsLTEuMTMgLTIuNzcsLTIuMDIgeiIvPiYjeGE7JiN4YTs8cGF0aCBpZD0icGF0aDY2NTEzIiBpbmtzY2FwZTpjb25uZWN0b3ItY3VydmF0dXJlPSIwIiBzdHlsZT0iZmlsbDojN2E3YTdhIiBkPSJtIDMzLjY3MTg5OSwxOS40MiAtMC4yOSwwLjE0IC0yLjMzLDEuMjEgLTEuNTksLTAuNjYgLTAuOTgsLTIuNzggaCAtMi4yMyBsIC0wLjE0LDAuMyAtMC44NCwyLjQ4IC0xLjU4LDAuNjYgLTIuNjIsLTEuMjcgLTEuNTksMS42NSAwLjE1LDAuMjkgMS4yMSwyLjMzIC0wLjY3LDEuNTkgLTIuNzcsMC45NyB2IDIuMzQgbCAwLjI5LDAuMDggMi40OCwwLjgzIDAuNjcsMS41OSAtMS4yNSwyLjU4IDEuNjQsMS42NSAwLjI5LC0wLjE1IDIuMzQsLTEuMjEgMS41OCwwLjY3IDAuOTgsMi43NyBoIDIuMzMgbCAwLjA5LC0wLjI5IDAuODMsLTIuNDggMS41OCwtMC42NyAyLjcxLDEuMjcgMS42NSwtMS42NCAtMS41LC0yLjYzIDAuNjYsLTEuNTggMi43OCwtMC45OCB2IC0yLjIzIGwgLTAuMywtMC4xNCAtMi40OCwtMC44NCAtMC42NiwtMS41OCAxLjEyLC0yLjQgeiBtIC02LjIxLDExLjI1IGMgLTEuNzksMCAtMy4yMywtMS40MiAtMy4yMywtMy4yMyAwLC0xLjc5IDEuNDIsLTMuMjMgMy4yMywtMy4yMyAxLjgxLDAgMy4yMywxLjQyIDMuMjMsMy4yMyAtMC4wMiwxLjgxIC0xLjQ0LDMuMjMgLTMuMjMsMy4yMyB6Ii8+JiN4YTsmI3hhOyYjeGE7JiN4YTs8cGF0aCBpZD0icGF0aDY2NTMxIiBpbmtzY2FwZTpjb25uZWN0b3ItY3VydmF0dXJlPSIwIiBzdHlsZT0iZmlsbDojZmZmZmZmO2ZpbGwtb3BhY2l0eTowLjI1IiBkPSJtIDI0LjIzMTg5OSwyNy40NiBjIDAsLTEuNzkgMS40MiwtMy4yMyAzLjIzLC0zLjIzIDAuNDYsMCAwLjg0LDAuMDkgMS4yMSwwLjIzIGwgMS42NSwtMy45OCAtMC43NSwtMC4yOSAtMS4wNSwtMi44NSBoIC0yLjI3IGwgLTAuMTQsMC4yOSAtMC44NCwyLjQ4IC0xLjU4LDAuNjcgLTIuNjIsLTEuMjggLTEuNTksMS42NSAwLjE1LDAuMjkgMS4yMSwyLjM0IC0wLjY3LDEuNTggLTIuNzcsMC45OCB2IDIuMzMgbCAwLjI5LDAuMDggMi40OCwwLjg0IDAuNjcsMS41OCAtMS4yNSwyLjU4IDEuNjQsMS42NSAwLjI5LC0wLjE1IDIuMzQsLTEuMiAwLjY2LDAuMjkgMS42NSwtMy45OCBjIC0xLjEyLC0wLjUgLTEuOTQsLTEuNjMgLTEuOTQsLTIuOSB6Ii8+JiN4YTsmI3hhOzxwYXRoIGlkPSJwYXRoNjY1NDAiIGlua3NjYXBlOmNvbm5lY3Rvci1jdXJ2YXR1cmU9IjAiIHN0eWxlPSJmaWxsOiM3YTdhN2EiIGQ9Im0gMTUuMTQxODk5LDI2LjgxIC0wLjE5LDAuMDkgLTEuMzgsMC43IC0wLjkzLC0wLjM5IC0wLjU5LC0xLjY1IGggLTEuMzMgbCAtMC4wOCwwLjE5IC0wLjQ4LDEuNDYgLTAuOTM5OTk5OSwwLjM5IC0xLjU0LC0wLjc1IC0wLjk0LDAuOTggMC4wOCwwLjE5IDAuNzEsMS4zOCAtMC4zOSwwLjkzIC0xLjY1LDAuNTkgdiAxLjM3IGwgMC4xOSwwLjA0IDEuNDYsMC40OCAwLjM5LDAuOTQgLTAuNzUsMS41NCAwLjk4LDAuOTggMC4xOSwtMC4wOCAxLjM3LC0wLjcxIDAuOTM5OTk5OSwwLjM5IDAuNTgsMS42NSBoIDEuMzggbCAwLjA0LC0wLjE5IDAuNDgsLTEuNDYgMC45NCwtMC4zOSAxLjYsMC43NSAwLjk4LC0wLjk4IC0wLjg5LC0xLjU0IDAuMzksLTAuOTQgMS42NSwtMC41OCB2IC0xLjM0IGwgLTAuMTksLTAuMDggLTEuNDYsLTAuNDggLTAuMzksLTAuOTQgMC42NiwtMS40MSB6IG0gLTMuNjksNi42NSBjIC0xLjA2LDAgLTEuODk5OTk5OSwtMC44NCAtMS44OTk5OTk5LC0xLjkgMCwtMS4wNiAwLjgzOTk5OTksLTEuODkgMS44OTk5OTk5LC0xLjg5IDEuMDYsMCAxLjg5LDAuODMgMS44OSwxLjg5IDAsMS4wNiAtMC44MywxLjkgLTEuODksMS45IHoiLz4mI3hhOyYjeGE7JiN4YTsmI3hhOzxwYXRoIGlkPSJwYXRoNjY1NTgiIGlua3NjYXBlOmNvbm5lY3Rvci1jdXJ2YXR1cmU9IjAiIHN0eWxlPSJmaWxsOiNmZmZmZmY7ZmlsbC1vcGFjaXR5OjAuMjUiIGQ9Im0gOS41NTE4OTkxLDMxLjU2IGMgMCwtMS4wNiAwLjgzOTk5OTksLTEuODkgMS44OTk5OTk5LC0xLjg5IDAuMjcsMCAwLjQ4LDAuMDQgMC43MSwwLjEyIGwgMC45OCwtMi4zNSAtMC40NCwtMC4xOSAtMC42MywtMS42OSBoIC0xLjMzIGwgLTAuMDgsMC4xOSAtMC40OCwxLjQ2IC0wLjkzOTk5OTksMC4zOSAtMS41NCwtMC43NSAtMC45NCwwLjk4IDAuMDgsMC4xOSAwLjcxLDEuMzggLTAuMzksMC45MyAtMS42NSwwLjU5IHYgMS4zNyBsIDAuMTksMC4wNCAxLjQ2LDAuNDggMC4zOSwwLjk0IC0wLjc1LDEuNTQgMC45OCwwLjk4IDAuMTksLTAuMDggMS4zNywtMC43MSAwLjQsMC4xOSAwLjk3OTk5OTksLTIuMzYgYyAtMC42OSwtMC4zMyAtMS4xNjk5OTk5LC0xIC0xLjE2OTk5OTksLTEuNzUgeiIvPiYjeGE7PC9zdmc+;" vertex="1" parent="1">
          <mxGeometry x="625.0000000000001" y="440" width="38" height="38" as="geometry" />
        </mxCell>
        <mxCell id="cnw9rlaOAe4eeBvIx0O1-12" value="&lt;font color=&quot;#ff0000&quot;&gt;PROD&lt;/font&gt;" style="text;strokeColor=none;align=center;fillColor=none;html=1;verticalAlign=middle;whiteSpace=wrap;rounded=0;" vertex="1" parent="1">
          <mxGeometry x="616" y="478" width="56" height="30" as="geometry" />
        </mxCell>
        <mxCell id="cnw9rlaOAe4eeBvIx0O1-13" value="&lt;font color=&quot;#ff0000&quot;&gt;UAT&lt;/font&gt;" style="text;strokeColor=none;align=center;fillColor=none;html=1;verticalAlign=middle;whiteSpace=wrap;rounded=0;" vertex="1" parent="1">
          <mxGeometry x="563" y="478" width="56" height="30" as="geometry" />
        </mxCell>
        <mxCell id="cnw9rlaOAe4eeBvIx0O1-20" value="Frontend" style="text;strokeColor=none;align=center;fillColor=none;html=1;verticalAlign=middle;whiteSpace=wrap;rounded=0;" vertex="1" parent="1">
          <mxGeometry x="470" y="230" width="120" height="40" as="geometry" />
        </mxCell>
        <mxCell id="cnw9rlaOAe4eeBvIx0O1-22" style="edgeStyle=orthogonalEdgeStyle;rounded=0;orthogonalLoop=1;jettySize=auto;html=1;exitX=0.5;exitY=1;exitDx=0;exitDy=0;entryX=0.5;entryY=0;entryDx=0;entryDy=0;" edge="1" parent="1" source="cnw9rlaOAe4eeBvIx0O1-24" target="cnw9rlaOAe4eeBvIx0O1-4">
          <mxGeometry relative="1" as="geometry" />
        </mxCell>
        <mxCell id="cnw9rlaOAe4eeBvIx0O1-21" value="" style="shape=image;verticalLabelPosition=bottom;labelBackgroundColor=#ffffff;verticalAlign=top;aspect=fixed;imageAspect=0;image=data:image/svg+xml,PHN2ZyB4bWxuczpkYz0iaHR0cDovL3B1cmwub3JnL2RjL2VsZW1lbnRzLzEuMS8iIHhtbG5zOmNjPSJodHRwOi8vY3JlYXRpdmVjb21tb25zLm9yZy9ucyMiIHhtbG5zOnJkZj0iaHR0cDovL3d3dy53My5vcmcvMTk5OS8wMi8yMi1yZGYtc3ludGF4LW5zIyIgeG1sbnM6c3ZnPSJodHRwOi8vd3d3LnczLm9yZy8yMDAwL3N2ZyIgeG1sbnM9Imh0dHA6Ly93d3cudzMub3JnLzIwMDAvc3ZnIiB4bWxuczpzb2RpcG9kaT0iaHR0cDovL3NvZGlwb2RpLnNvdXJjZWZvcmdlLm5ldC9EVEQvc29kaXBvZGktMC5kdGQiIHhtbG5zOmlua3NjYXBlPSJodHRwOi8vd3d3Lmlua3NjYXBlLm9yZy9uYW1lc3BhY2VzL2lua3NjYXBlIiB2ZXJzaW9uPSIxLjEiIGlkPSJzdmc4NTcyNyIgaW5rc2NhcGU6dmVyc2lvbj0iMC45Mi4zICgyNDA1NTQ2LCAyMDE4LTAzLTExKSIgc29kaXBvZGk6ZG9jbmFtZT0ibW9iaWxlX2FwcHMuc3ZnIiB4PSIwcHgiIHk9IjBweCIgdmlld0JveD0iMCAwIDQ0LjMzIDY0LjMzOTk5MyIgeG1sOnNwYWNlPSJwcmVzZXJ2ZSIgd2lkdGg9IjQ0LjMzMDAwMiIgaGVpZ2h0PSI2NC4zMzk5OTYiPjxtZXRhZGF0YSBpZD0ibWV0YWRhdGE0NDI3Ij48cmRmOlJERj48Y2M6V29yayByZGY6YWJvdXQ9IiI+PGRjOmZvcm1hdD5pbWFnZS9zdmcreG1sPC9kYzpmb3JtYXQ+PGRjOnR5cGUgcmRmOnJlc291cmNlPSJodHRwOi8vcHVybC5vcmcvZGMvZGNtaXR5cGUvU3RpbGxJbWFnZSIvPjxkYzp0aXRsZS8+PC9jYzpXb3JrPjwvcmRmOlJERj48L21ldGFkYXRhPjxkZWZzIGlkPSJkZWZzNDQyNSI+JiN4YTsJJiN4YTsmI3hhOwkmI3hhOyYjeGE7CSYjeGE7JiN4YTsJJiN4YTsmI3hhOwkmI3hhOyYjeGE7CSYjeGE7JiN4YTsJJiN4YTsmI3hhOwkmI3hhOyYjeGE7CSYjeGE7JiN4YTsJJiN4YTsmI3hhOwkJJiN4YTsJJiN4YTsJCSYjeGE7CSYjeGE7CQkmI3hhOwkmI3hhOwkJJiN4YTsJJiN4YTsJCSYjeGE7CSYjeGE7CQkmI3hhOwkmI3hhOwkJJiN4YTsJJiN4YTsJCSYjeGE7CSYjeGE7CQkmI3hhOwkmI3hhOwkJJiN4YTsJPC9kZWZzPiYjeGE7PGZpbHRlciBpZD0iZmlsdGVyXzIiPiYjeGE7CTxmZUdhdXNzaWFuQmx1ciBpZD0iZmVHYXVzc2lhbkJsdXI4NTYzNiIgc3RkRGV2aWF0aW9uPSIyIi8+JiN4YTs8L2ZpbHRlcj4mI3hhOzxzb2RpcG9kaTpuYW1lZHZpZXcgYm9yZGVyY29sb3I9IiM2NjY2NjYiIGJvcmRlcm9wYWNpdHk9IjEiIGZpdC1tYXJnaW4tYm90dG9tPSIwIiBmaXQtbWFyZ2luLWxlZnQ9IjAiIGZpdC1tYXJnaW4tcmlnaHQ9IjAiIGZpdC1tYXJnaW4tdG9wPSIwIiBncmlkdG9sZXJhbmNlPSIxMCIgZ3VpZGV0b2xlcmFuY2U9IjEwIiBpZD0ibmFtZWR2aWV3ODU3MjkiIGlua3NjYXBlOmN1cnJlbnQtbGF5ZXI9InN2Zzg1NzI3IiBpbmtzY2FwZTpjeD0iLTEzLjk5MTk2MyIgaW5rc2NhcGU6Y3k9IjI4LjEwNjUyNCIgaW5rc2NhcGU6cGFnZW9wYWNpdHk9IjAiIGlua3NjYXBlOnBhZ2VzaGFkb3c9IjIiIGlua3NjYXBlOndpbmRvdy1oZWlnaHQ9IjEwMTciIGlua3NjYXBlOndpbmRvdy1tYXhpbWl6ZWQ9IjEiIGlua3NjYXBlOndpbmRvdy13aWR0aD0iMTkyMCIgaW5rc2NhcGU6d2luZG93LXg9Ii04IiBpbmtzY2FwZTp3aW5kb3cteT0iLTgiIGlua3NjYXBlOnpvb209IjcuMzIwNTc3NCIgb2JqZWN0dG9sZXJhbmNlPSIxMCIgcGFnZWNvbG9yPSIjZmZmZmZmIiBzaG93Z3JpZD0iZmFsc2UiPiYjeGE7CTwvc29kaXBvZGk6bmFtZWR2aWV3PiYjeGE7JiN4YTs8cGF0aCBpZD0icGF0aDg1NjQ5IiBpbmtzY2FwZTpjb25uZWN0b3ItY3VydmF0dXJlPSIwIiBzdHlsZT0iZmlsbDojM2UzZTNlIiBkPSJtIDQ0LjMzLDYwLjQ4IGMgMCwyLjE0IC0xLjczLDMuODYgLTMuODYsMy44NiBIIDMuODYgQyAxLjczLDY0LjM0IDAsNjIuNjIgMCw2MC40OCBWIDMuODYgQyAwLDEuNzMgMS43MywwIDMuODYsMCBoIDM2LjYxIGMgMi4xMywwIDMuODYsMS43MyAzLjg2LDMuODYgeiIvPiYjeGE7JiN4YTs8cmVjdCBpZD0icmVjdDg1NjU3IiB4PSIyLjg2MDAwMDYiIHk9IjYuNDI5OTk5OCIgc3R5bGU9ImZpbGw6IzU5YjRkOSIgd2lkdGg9IjM4LjYxMDAwMSIgaGVpZ2h0PSI0NS4zMzAwMDIiLz4mI3hhOyYjeGE7PHBhdGggaWQ9InBhdGg4NTY2NSIgaW5rc2NhcGU6Y29ubmVjdG9yLWN1cnZhdHVyZT0iMCIgc3R5bGU9ImZpbGw6I2ZmZmZmZiIgZD0ibSAyNS44OSw1OC4wNSBjIDAsMi4wNSAtMS42NywzLjcxIC0zLjcyLDMuNzEgLTIuMDUsMCAtMy43MiwtMS42NiAtMy43MiwtMy43MSAwLC0yLjA2IDEuNjcsLTMuNzIgMy43MiwtMy43MiAyLjA1LDAgMy43MiwxLjY2IDMuNzIsMy43MiB6Ii8+JiN4YTsmI3hhOzxwYXRoIGlkPSJwYXRoODU2NzMiIGlua3NjYXBlOmNvbm5lY3Rvci1jdXJ2YXR1cmU9IjAiIHN0eWxlPSJmaWxsOiNiOGQ0MzIiIGQ9Im0gMjQuNiw1OC4wNiBjIDAsMS4zNCAtMS4wOSwyLjQzIC0yLjQzLDIuNDMgLTEuMzUsMCAtMi40NCwtMS4wOSAtMi40NCwtMi40MyAwLC0xLjM1IDEuMDksLTIuNDQgMi40NCwtMi40NCAxLjM0LDAgMi40MywxLjA5IDIuNDMsMi40NCB6Ii8+JiN4YTsmI3hhOyYjeGE7JiN4YTsmI3hhOyYjeGE7PHBhdGggaWQ9InBhdGg4NTY5NyIgaW5rc2NhcGU6Y29ubmVjdG9yLWN1cnZhdHVyZT0iMCIgc3R5bGU9ImZpbGw6I2ZmZmZmZiIgZD0ibSAyOC43NCwzLjYzIGMgMCwwLjUyIC0wLjQyLDAuOTQgLTAuOTUsMC45NCBIIDE2LjU0IGMgLTAuNTIsMCAtMC45NSwtMC40MiAtMC45NSwtMC45NCAwLC0wLjUzIDAuNDMsLTAuOTYgMC45NSwtMC45NiBoIDExLjI1IGMgMC41MywwIDAuOTUsMC40MyAwLjk1LDAuOTYgeiIvPiYjeGE7JiN4YTs8cGF0aCBpZD0icGF0aDg1NzA1IiBpbmtzY2FwZTpjb25uZWN0b3ItY3VydmF0dXJlPSIwIiBzdHlsZT0iZmlsbDojZmZmZmZmIiBkPSJtIDIyLjIsMjcuNDIgYyAtMC4wNiwwIC0wLjExLC0wLjAxIC0wLjE3LC0wLjA0IEwgMTAuNywyMC44NCBjIC0wLjEsLTAuMDcgLTAuMTcsLTAuMTggLTAuMTcsLTAuMyAwLC0wLjEyIDAuMDcsLTAuMjQgMC4xNywtMC4zIGwgMTEuMjYsLTYuNDkgYyAwLjExLC0wLjA2IDAuMjQsLTAuMDYgMC4zNCwwIGwgMTEuMzMsNi41NCBjIDAuMTEsMC4wNiAwLjE3LDAuMTcgMC4xNywwLjI5IDAsMC4xMyAtMC4wNiwwLjI0IC0wLjE3LDAuMyBsIC0xMS4yNSw2LjUgYyAtMC4wNiwwLjAzIC0wLjExLDAuMDQgLTAuMTgsMC4wNCB6Ii8+JiN4YTsmI3hhOzxwYXRoIGlkPSJwYXRoODU3MTMiIGlua3NjYXBlOmNvbm5lY3Rvci1jdXJ2YXR1cmU9IjAiIHN0eWxlPSJmaWxsOiNmZmZmZmY7ZmlsbC1vcGFjaXR5OjAuNyIgZD0ibSAyMC41Nyw0My4zMiBjIC0wLjA2LDAgLTAuMTIsLTAuMDEgLTAuMTcsLTAuMDQgTCA5LjExLDM2Ljc2IEMgOSwzNi43IDguOTMsMzYuNTkgOC45MywzNi40NiBWIDIzLjM4IGMgMCwtMC4xMiAwLjA3LC0wLjI0IDAuMTgsLTAuMyAwLjEsLTAuMDYgMC4yMywtMC4wNiAwLjM0LDAgbCAxMS4zLDYuNTIgYyAwLjEsMC4wNiAwLjE2LDAuMTggMC4xNiwwLjMgdiAxMy4wOCBjIDAsMC4xMyAtMC4wNiwwLjI0IC0wLjE2LDAuMyAtMC4wNiwwLjAzIC0wLjEyLDAuMDQgLTAuMTgsMC4wNCB6Ii8+JiN4YTsmI3hhOzxwYXRoIGlkPSJwYXRoODU3MjEiIGlua3NjYXBlOmNvbm5lY3Rvci1jdXJ2YXR1cmU9IjAiIHN0eWxlPSJmaWxsOiNmZmZmZmY7ZmlsbC1vcGFjaXR5OjAuNCIgZD0ibSAyMy43Nyw0My4zMiBjIC0wLjA2LDAgLTAuMTIsLTAuMDEgLTAuMTcsLTAuMDQgLTAuMSwtMC4wNiAtMC4xNywtMC4xNyAtMC4xNywtMC4zIHYgLTEzIGMgMCwtMC4xMiAwLjA3LC0wLjIzIDAuMTcsLTAuMyBsIDExLjI5LC02LjUxIGMgMC4xMSwtMC4wNiAwLjI0LC0wLjA2IDAuMzQsMCAwLjExLDAuMDYgMC4xNywwLjE3IDAuMTcsMC4yOSB2IDEzIGMgMCwwLjEzIC0wLjA2LDAuMjQgLTAuMTcsMC4zIGwgLTExLjI5LDYuNTIgYyAtMC4wNSwwLjAzIC0wLjExLDAuMDQgLTAuMTcsMC4wNCB6Ii8+JiN4YTs8cGF0aCBpZD0icGF0aDg2MDI3IiBpbmtzY2FwZTpjb25uZWN0b3ItY3VydmF0dXJlPSIwIiBzdHlsZT0iZmlsbDojZmZmZmZmO2ZpbGwtb3BhY2l0eTowLjE1IiBkPSJNIDIuODYwMDAwNiw1MS43OSBWIDYuNDI5OTk5OCBIIDMyLjI0MDAwMSBsIDIuNTgsLTYuNDM5OTk5NjcgSCAzLjkwMDAwMDYgYyAtMi4xOSwwIC0zLjg2OTk5OTk5LDEuNjc5OTk5OTcgLTMuODY5OTk5OTksMy44Njk5OTk5NyBWIDYwLjU1IGMgMCwyLjE5IDEuNjc5OTk5OTksMy44NyAzLjg2OTk5OTk5LDMuODcgaCA0Ljc2IEwgMTMuODIwMDAxLDUxLjc5IFoiLz48L3N2Zz4=;" vertex="1" parent="1">
          <mxGeometry x="56.62" y="174" width="44" height="64" as="geometry" />
        </mxCell>
        <mxCell id="cnw9rlaOAe4eeBvIx0O1-23" value="Internet" style="text;strokeColor=none;align=center;fillColor=none;html=1;verticalAlign=middle;whiteSpace=wrap;rounded=0;" vertex="1" parent="1">
          <mxGeometry x="80" y="410" width="56" height="30" as="geometry" />
        </mxCell>
        <mxCell id="cnw9rlaOAe4eeBvIx0O1-29" value="" style="edgeStyle=orthogonalEdgeStyle;rounded=0;orthogonalLoop=1;jettySize=auto;html=1;exitX=0.5;exitY=1;exitDx=0;exitDy=0;entryX=0.5;entryY=0;entryDx=0;entryDy=0;" edge="1" parent="1" source="cnw9rlaOAe4eeBvIx0O1-21" target="cnw9rlaOAe4eeBvIx0O1-24">
          <mxGeometry relative="1" as="geometry">
            <mxPoint x="78" y="208" as="sourcePoint" />
            <mxPoint x="79" y="379" as="targetPoint" />
          </mxGeometry>
        </mxCell>
        <mxCell id="cnw9rlaOAe4eeBvIx0O1-24" value="Mobile users" style="text;strokeColor=none;align=center;fillColor=none;html=1;verticalAlign=middle;whiteSpace=wrap;rounded=0;" vertex="1" parent="1">
          <mxGeometry x="40.43" y="240" width="77" height="30" as="geometry" />
        </mxCell>
        <mxCell id="cnw9rlaOAe4eeBvIx0O1-30" value="Resource Group" style="text;strokeColor=none;align=center;fillColor=none;html=1;verticalAlign=middle;whiteSpace=wrap;rounded=0;" vertex="1" parent="1">
          <mxGeometry x="961.76" y="630" width="64.16" height="30" as="geometry" />
        </mxCell>
        <mxCell id="cnw9rlaOAe4eeBvIx0O1-36" value="" style="shape=image;verticalLabelPosition=bottom;labelBackgroundColor=#ffffff;verticalAlign=top;aspect=fixed;imageAspect=0;image=data:image/svg+xml,PHN2ZyB4bWxuczpkYz0iaHR0cDovL3B1cmwub3JnL2RjL2VsZW1lbnRzLzEuMS8iIHhtbG5zOmNjPSJodHRwOi8vY3JlYXRpdmVjb21tb25zLm9yZy9ucyMiIHhtbG5zOnJkZj0iaHR0cDovL3d3dy53My5vcmcvMTk5OS8wMi8yMi1yZGYtc3ludGF4LW5zIyIgeG1sbnM6c3ZnPSJodHRwOi8vd3d3LnczLm9yZy8yMDAwL3N2ZyIgeG1sbnM9Imh0dHA6Ly93d3cudzMub3JnLzIwMDAvc3ZnIiB4bWxuczpzb2RpcG9kaT0iaHR0cDovL3NvZGlwb2RpLnNvdXJjZWZvcmdlLm5ldC9EVEQvc29kaXBvZGktMC5kdGQiIHhtbG5zOmlua3NjYXBlPSJodHRwOi8vd3d3Lmlua3NjYXBlLm9yZy9uYW1lc3BhY2VzL2lua3NjYXBlIiB2ZXJzaW9uPSIxLjEiIGlkPSJzdmc5NzA4NCIgaW5rc2NhcGU6dmVyc2lvbj0iMC45Mi4zICgyNDA1NTQ2LCAyMDE4LTAzLTExKSIgc29kaXBvZGk6ZG9jbmFtZT0ic3FsX2RhdGFiYXNlLnN2ZyIgeD0iMHB4IiB5PSIwcHgiIHZpZXdCb3g9IjAgMCA3NS41MiAxMDAuMTEiIHhtbDpzcGFjZT0icHJlc2VydmUiIHdpZHRoPSI3NS41MTk5OTciIGhlaWdodD0iMTAwLjExIj48bWV0YWRhdGEgaWQ9Im1ldGFkYXRhMTcyNiI+PHJkZjpSREY+PGNjOldvcmsgcmRmOmFib3V0PSIiPjxkYzpmb3JtYXQ+aW1hZ2Uvc3ZnK3htbDwvZGM6Zm9ybWF0PjxkYzp0eXBlIHJkZjpyZXNvdXJjZT0iaHR0cDovL3B1cmwub3JnL2RjL2RjbWl0eXBlL1N0aWxsSW1hZ2UiLz48ZGM6dGl0bGUvPjwvY2M6V29yaz48L3JkZjpSREY+PC9tZXRhZGF0YT48ZGVmcyBpZD0iZGVmczE3MjQiPiYjeGE7CSYjeGE7JiN4YTsJJiN4YTsmI3hhOwkmI3hhOyYjeGE7CSYjeGE7JiN4YTsJJiN4YTsmI3hhOwkmI3hhOyYjeGE7CSYjeGE7JiN4YTsJJiN4YTsmI3hhOwkmI3hhOyYjeGE7CQkmI3hhOwkmI3hhOwkJJiN4YTsJJiN4YTsJCSYjeGE7CSYjeGE7CQkmI3hhOwkmI3hhOwkJJiN4YTsJJiN4YTsJCSYjeGE7CSYjeGE7CQkmI3hhOwkmI3hhOwkJJiN4YTsJPC9kZWZzPiYjeGE7PGZpbHRlciBpZD0iZmlsdGVyXzIiPiYjeGE7CTxmZUdhdXNzaWFuQmx1ciBpZD0iZmVHYXVzc2lhbkJsdXI5NzAwMSIgc3RkRGV2aWF0aW9uPSIyIi8+JiN4YTs8L2ZpbHRlcj4mI3hhOzxzb2RpcG9kaTpuYW1lZHZpZXcgYm9yZGVyY29sb3I9IiM2NjY2NjYiIGJvcmRlcm9wYWNpdHk9IjEiIGZpdC1tYXJnaW4tYm90dG9tPSIwIiBmaXQtbWFyZ2luLWxlZnQ9IjAiIGZpdC1tYXJnaW4tcmlnaHQ9IjAiIGZpdC1tYXJnaW4tdG9wPSIwIiBncmlkdG9sZXJhbmNlPSIxMCIgZ3VpZGV0b2xlcmFuY2U9IjEwIiBpZD0ibmFtZWR2aWV3OTcwODYiIGlua3NjYXBlOmN1cnJlbnQtbGF5ZXI9InN2Zzk3MDg0IiBpbmtzY2FwZTpjeD0iLTQ2LjkyMDI2NSIgaW5rc2NhcGU6Y3k9IjM4LjczMTY2NiIgaW5rc2NhcGU6cGFnZW9wYWNpdHk9IjAiIGlua3NjYXBlOnBhZ2VzaGFkb3c9IjIiIGlua3NjYXBlOndpbmRvdy1oZWlnaHQ9IjEwMTciIGlua3NjYXBlOndpbmRvdy1tYXhpbWl6ZWQ9IjEiIGlua3NjYXBlOndpbmRvdy13aWR0aD0iMTkyMCIgaW5rc2NhcGU6d2luZG93LXg9Ii04IiBpbmtzY2FwZTp3aW5kb3cteT0iLTgiIGlua3NjYXBlOnpvb209IjUuMjE5MzE5NyIgb2JqZWN0dG9sZXJhbmNlPSIxMCIgcGFnZWNvbG9yPSIjZmZmZmZmIiBzaG93Z3JpZD0iZmFsc2UiPiYjeGE7CTwvc29kaXBvZGk6bmFtZWR2aWV3PiYjeGE7JiN4YTs8cGF0aCBpZD0icGF0aDk3MDE0IiBpbmtzY2FwZTpjb25uZWN0b3ItY3VydmF0dXJlPSIwIiBzdHlsZT0iZmlsbDojMDA3MmM2IiBkPSJtIDAsMTMuNjggdiA3Mi43NSBjIDAsNy41NSAxNi45MSwxMy42OCAzNy43NiwxMy42OCBWIDEzLjY4IGMgMCwwIC0zNy43NiwwIC0zNy43NiwwIHoiLz4mI3hhOyYjeGE7PHBhdGggaWQ9InBhdGg5NzAyMiIgaW5rc2NhcGU6Y29ubmVjdG9yLWN1cnZhdHVyZT0iMCIgc3R5bGU9ImZpbGw6IzAwNzJjNiIgZD0ibSAzNy4yNCwxMDAuMTEgaCAwLjUyIGMgMjAuODUsMCAzNy43NiwtNi4xMyAzNy43NiwtMTMuNjggViAxMy42OCBIIDM3LjI0IFoiLz4mI3hhOyYjeGE7PHBhdGggaWQ9InBhdGg5NzAzMCIgaW5rc2NhcGU6Y29ubmVjdG9yLWN1cnZhdHVyZT0iMCIgc3R5bGU9ImZpbGw6I2ZmZmZmZjtmaWxsLW9wYWNpdHk6MC4xNSIgZD0ibSAzNy4yNCwxMDAuMTEgaCAwLjUyIGMgMjAuODUsMCAzNy43NiwtNi4xMyAzNy43NiwtMTMuNjggViAxMy42OCBIIDM3LjI0IFoiLz4mI3hhOyYjeGE7PHBhdGggaWQ9InBhdGg5NzAzOCIgaW5rc2NhcGU6Y29ubmVjdG9yLWN1cnZhdHVyZT0iMCIgc3R5bGU9ImZpbGw6I2ZmZmZmZiIgZD0ibSA3NS41MiwxMy42OCBjIDAsNy41NSAtMTYuOTEsMTMuNjggLTM3Ljc2LDEzLjY4IEMgMTYuOTEsMjcuMzYgMCwyMS4yMyAwLDEzLjY4IDAsNi4xMyAxNi45MSwwIDM3Ljc2LDAgNTguNjEsMCA3NS41Miw2LjEzIDc1LjUyLDEzLjY4IFoiLz4mI3hhOyYjeGE7PHBhdGggaWQ9InBhdGg5NzA0NiIgaW5rc2NhcGU6Y29ubmVjdG9yLWN1cnZhdHVyZT0iMCIgc3R5bGU9ImZpbGw6IzdmYmEwMCIgZD0ibSA2Ny44LDEyLjg5IGMgMCw0Ljk5IC0xMy40NSw5LjAzIC0zMC4wNCw5LjAzIC0xNi41OSwwIC0zMC4wNCwtNC4wNCAtMzAuMDQsLTkuMDMgMCwtNC45OCAxMy40NSwtOS4wMiAzMC4wNCwtOS4wMiAxNi41OSwwIDMwLjA0LDQuMDQgMzAuMDQsOS4wMiB6Ii8+JiN4YTsmI3hhOzxwYXRoIGlkPSJwYXRoOTcwNTQiIGlua3NjYXBlOmNvbm5lY3Rvci1jdXJ2YXR1cmU9IjAiIHN0eWxlPSJmaWxsOiNiOGQ0MzIiIGQ9Ik0gNjEuNTEsMTguNDEgQyA2NS40NCwxNi44OCA2Ny44LDE0Ljk3IDY3LjgsMTIuOSA2Ny44LDcuOTEgNTQuMzUsMy44NyAzNy43NiwzLjg3IDIxLjE3LDMuODcgNy43Miw3LjkxIDcuNzIsMTIuOSBjIDAsMi4wNyAyLjM2LDMuOTggNi4zLDUuNTEgNS40OSwtMi4xNCAxNC4wNywtMy41MSAyMy43NCwtMy41MSA5LjY3LDAgMTguMjUsMS4zNyAyMy43NSwzLjUxIHoiLz4mI3hhOyYjeGE7PHBhdGggaWQ9InBhdGg5NzA2MiIgaW5rc2NhcGU6Y29ubmVjdG9yLWN1cnZhdHVyZT0iMCIgc3R5bGU9ImZpbGw6I2ZmZmZmZiIgZD0ibSAyNS43Nyw2NC4xOCBjIDAsMi4yNiAtMC44Miw0LjAxIC0yLjQ2LDUuMjUgLTEuNjQsMS4yNCAtMy45LDEuODcgLTYuNzksMS44NyAtMi40NiwwIC00LjUyLC0wLjQ1IC02LjE3LC0xLjMzIHYgLTUuMzIgYyAxLjksMS42MSA0LDIuNDIgNi4zLDIuNDIgMS4xLDAgMS45NiwtMC4yMiAyLjU3LC0wLjY2IDAuNiwtMC40NCAwLjksLTEuMDMgMC45LC0xLjc2IDAsLTAuNzIgLTAuMjksLTEuMzUgLTAuODcsLTEuODggLTAuNTgsLTAuNTMgLTEuNzcsLTEuMjIgLTMuNTUsLTIuMDYgLTMuNjMsLTEuNzEgLTUuNDUsLTQuMDQgLTUuNDUsLTYuOTggMCwtMi4xNCAwLjc5LC0zLjg1IDIuMzgsLTUuMTQgMS41OCwtMS4yOSAzLjY5LC0xLjk0IDYuMzEsLTEuOTQgMi4zMywwIDQuMjUsMC4zMSA1Ljc5LDAuOTEgdiA0Ljk3IGMgLTEuNjEsLTEuMTEgLTMuNDQsLTEuNjYgLTUuNDksLTEuNjYgLTEuMDMsMCAtMS44NCwwLjIyIC0yLjQ0LDAuNjYgLTAuNiwwLjQzIC0wLjksMS4wMiAtMC45LDEuNzUgMCwwLjc1IDAuMjQsMS4zNyAwLjczLDEuODUgMC40OCwwLjQ4IDEuNDcsMS4wOCAyLjk2LDEuNzkgMi4yMywxLjA1IDMuODIsMi4xMiA0Ljc2LDMuMjEgMC45NSwxLjA4IDEuNDIsMi40NCAxLjQyLDQuMDUgeiIvPiYjeGE7JiN4YTs8cGF0aCBpZD0icGF0aDk3MDcwIiBpbmtzY2FwZTpjb25uZWN0b3ItY3VydmF0dXJlPSIwIiBzdHlsZT0iZmlsbDojZmZmZmZmIiBkPSJtIDUxLjQxLDU4Ljc5IGMgMCwyLjgxIC0wLjY0LDUuMjQgLTEuOTEsNy4zIC0xLjI4LDIuMDYgLTMuMDcsMy41IC01LjM5LDQuMzQgbCA2LjkyLDYuNCBIIDQ0LjA1IEwgMzkuMTEsNzEuMjkgQyAzNyw3MS4yMSAzNS4wOSw3MC42NSAzMy4zOSw2OS42MSBjIC0xLjcsLTEuMDQgLTMuMDIsLTIuNDcgLTMuOTQsLTQuMjggLTAuOTMsLTEuODEgLTEuMzksLTMuODMgLTEuMzksLTYuMDUgMCwtMi40NyAwLjUsLTQuNjggMS41LC02LjYxIDEuMDEsLTEuOTMgMi40MSwtMy40MiA0LjIzLC00LjQ2IDEuODIsLTEuMDQgMy45LC0xLjU2IDYuMjUsLTEuNTYgMi4xOSwwIDQuMTYsMC41IDUuODksMS41MSAxLjczLDEuMDEgMy4wOCwyLjQ0IDQuMDQsNC4zIDAuOTYsMS44NiAxLjQ0LDMuOTcgMS40NCw2LjMzIHogbSAtNS42NSwwLjMgYyAwLC0yLjQxIC0wLjUyLC00LjMyIC0xLjU4LC01LjcyIC0xLjA1LC0xLjQgLTIuNDksLTIuMSAtNC4zMiwtMi4xIC0xLjg2LDAgLTMuMzUsMC43IC00LjQ3LDIuMSAtMS4xMiwxLjQxIC0xLjY4LDMuMjggLTEuNjgsNS42MiAwLDIuMzMgMC41NSw0LjE5IDEuNjUsNS41OCAxLjA5LDEuMzkgMi41NSwyLjA4IDQuMzYsMi4wOCAxLjg2LDAgMy4zMiwtMC42NyA0LjQxLC0yLjAyIDEuMDksLTEuMzQgMS42MywtMy4xOSAxLjYzLC01LjU0IHoiLz4mI3hhOyYjeGE7PHBhdGggaWQ9InBhdGg5NzA3OCIgaW5rc2NhcGU6Y29ubmVjdG9yLWN1cnZhdHVyZT0iMCIgc3R5bGU9ImZpbGw6I2ZmZmZmZiIgZD0iTSA2OS41NCw3MC44OCBIIDU1LjM1IFYgNDcuMDUgaCA1LjM3IHYgMTkuNDcgaCA4LjgyIHoiLz4mI3hhOzwvc3ZnPg==;" vertex="1" parent="1">
          <mxGeometry x="829.5" y="310" width="41" height="53" as="geometry" />
        </mxCell>
        <mxCell id="cnw9rlaOAe4eeBvIx0O1-37" value="" style="shape=image;verticalLabelPosition=bottom;labelBackgroundColor=#ffffff;verticalAlign=top;aspect=fixed;imageAspect=0;image=data:image/svg+xml,PHN2ZyB4bWxuczpkYz0iaHR0cDovL3B1cmwub3JnL2RjL2VsZW1lbnRzLzEuMS8iIHhtbG5zOmNjPSJodHRwOi8vY3JlYXRpdmVjb21tb25zLm9yZy9ucyMiIHhtbG5zOnJkZj0iaHR0cDovL3d3dy53My5vcmcvMTk5OS8wMi8yMi1yZGYtc3ludGF4LW5zIyIgeG1sbnM6c3ZnPSJodHRwOi8vd3d3LnczLm9yZy8yMDAwL3N2ZyIgeG1sbnM9Imh0dHA6Ly93d3cudzMub3JnLzIwMDAvc3ZnIiB4bWxuczpzb2RpcG9kaT0iaHR0cDovL3NvZGlwb2RpLnNvdXJjZWZvcmdlLm5ldC9EVEQvc29kaXBvZGktMC5kdGQiIHhtbG5zOmlua3NjYXBlPSJodHRwOi8vd3d3Lmlua3NjYXBlLm9yZy9uYW1lc3BhY2VzL2lua3NjYXBlIiB2ZXJzaW9uPSIxLjEiIGlkPSJzdmc5NzA4NCIgaW5rc2NhcGU6dmVyc2lvbj0iMC45Mi4zICgyNDA1NTQ2LCAyMDE4LTAzLTExKSIgc29kaXBvZGk6ZG9jbmFtZT0ic3FsX2RhdGFiYXNlLnN2ZyIgeD0iMHB4IiB5PSIwcHgiIHZpZXdCb3g9IjAgMCA3NS41MiAxMDAuMTEiIHhtbDpzcGFjZT0icHJlc2VydmUiIHdpZHRoPSI3NS41MTk5OTciIGhlaWdodD0iMTAwLjExIj48bWV0YWRhdGEgaWQ9Im1ldGFkYXRhMTcyNiI+PHJkZjpSREY+PGNjOldvcmsgcmRmOmFib3V0PSIiPjxkYzpmb3JtYXQ+aW1hZ2Uvc3ZnK3htbDwvZGM6Zm9ybWF0PjxkYzp0eXBlIHJkZjpyZXNvdXJjZT0iaHR0cDovL3B1cmwub3JnL2RjL2RjbWl0eXBlL1N0aWxsSW1hZ2UiLz48ZGM6dGl0bGUvPjwvY2M6V29yaz48L3JkZjpSREY+PC9tZXRhZGF0YT48ZGVmcyBpZD0iZGVmczE3MjQiPiYjeGE7CSYjeGE7JiN4YTsJJiN4YTsmI3hhOwkmI3hhOyYjeGE7CSYjeGE7JiN4YTsJJiN4YTsmI3hhOwkmI3hhOyYjeGE7CSYjeGE7JiN4YTsJJiN4YTsmI3hhOwkmI3hhOyYjeGE7CQkmI3hhOwkmI3hhOwkJJiN4YTsJJiN4YTsJCSYjeGE7CSYjeGE7CQkmI3hhOwkmI3hhOwkJJiN4YTsJJiN4YTsJCSYjeGE7CSYjeGE7CQkmI3hhOwkmI3hhOwkJJiN4YTsJPC9kZWZzPiYjeGE7PGZpbHRlciBpZD0iZmlsdGVyXzIiPiYjeGE7CTxmZUdhdXNzaWFuQmx1ciBpZD0iZmVHYXVzc2lhbkJsdXI5NzAwMSIgc3RkRGV2aWF0aW9uPSIyIi8+JiN4YTs8L2ZpbHRlcj4mI3hhOzxzb2RpcG9kaTpuYW1lZHZpZXcgYm9yZGVyY29sb3I9IiM2NjY2NjYiIGJvcmRlcm9wYWNpdHk9IjEiIGZpdC1tYXJnaW4tYm90dG9tPSIwIiBmaXQtbWFyZ2luLWxlZnQ9IjAiIGZpdC1tYXJnaW4tcmlnaHQ9IjAiIGZpdC1tYXJnaW4tdG9wPSIwIiBncmlkdG9sZXJhbmNlPSIxMCIgZ3VpZGV0b2xlcmFuY2U9IjEwIiBpZD0ibmFtZWR2aWV3OTcwODYiIGlua3NjYXBlOmN1cnJlbnQtbGF5ZXI9InN2Zzk3MDg0IiBpbmtzY2FwZTpjeD0iLTQ2LjkyMDI2NSIgaW5rc2NhcGU6Y3k9IjM4LjczMTY2NiIgaW5rc2NhcGU6cGFnZW9wYWNpdHk9IjAiIGlua3NjYXBlOnBhZ2VzaGFkb3c9IjIiIGlua3NjYXBlOndpbmRvdy1oZWlnaHQ9IjEwMTciIGlua3NjYXBlOndpbmRvdy1tYXhpbWl6ZWQ9IjEiIGlua3NjYXBlOndpbmRvdy13aWR0aD0iMTkyMCIgaW5rc2NhcGU6d2luZG93LXg9Ii04IiBpbmtzY2FwZTp3aW5kb3cteT0iLTgiIGlua3NjYXBlOnpvb209IjUuMjE5MzE5NyIgb2JqZWN0dG9sZXJhbmNlPSIxMCIgcGFnZWNvbG9yPSIjZmZmZmZmIiBzaG93Z3JpZD0iZmFsc2UiPiYjeGE7CTwvc29kaXBvZGk6bmFtZWR2aWV3PiYjeGE7JiN4YTs8cGF0aCBpZD0icGF0aDk3MDE0IiBpbmtzY2FwZTpjb25uZWN0b3ItY3VydmF0dXJlPSIwIiBzdHlsZT0iZmlsbDojMDA3MmM2IiBkPSJtIDAsMTMuNjggdiA3Mi43NSBjIDAsNy41NSAxNi45MSwxMy42OCAzNy43NiwxMy42OCBWIDEzLjY4IGMgMCwwIC0zNy43NiwwIC0zNy43NiwwIHoiLz4mI3hhOyYjeGE7PHBhdGggaWQ9InBhdGg5NzAyMiIgaW5rc2NhcGU6Y29ubmVjdG9yLWN1cnZhdHVyZT0iMCIgc3R5bGU9ImZpbGw6IzAwNzJjNiIgZD0ibSAzNy4yNCwxMDAuMTEgaCAwLjUyIGMgMjAuODUsMCAzNy43NiwtNi4xMyAzNy43NiwtMTMuNjggViAxMy42OCBIIDM3LjI0IFoiLz4mI3hhOyYjeGE7PHBhdGggaWQ9InBhdGg5NzAzMCIgaW5rc2NhcGU6Y29ubmVjdG9yLWN1cnZhdHVyZT0iMCIgc3R5bGU9ImZpbGw6I2ZmZmZmZjtmaWxsLW9wYWNpdHk6MC4xNSIgZD0ibSAzNy4yNCwxMDAuMTEgaCAwLjUyIGMgMjAuODUsMCAzNy43NiwtNi4xMyAzNy43NiwtMTMuNjggViAxMy42OCBIIDM3LjI0IFoiLz4mI3hhOyYjeGE7PHBhdGggaWQ9InBhdGg5NzAzOCIgaW5rc2NhcGU6Y29ubmVjdG9yLWN1cnZhdHVyZT0iMCIgc3R5bGU9ImZpbGw6I2ZmZmZmZiIgZD0ibSA3NS41MiwxMy42OCBjIDAsNy41NSAtMTYuOTEsMTMuNjggLTM3Ljc2LDEzLjY4IEMgMTYuOTEsMjcuMzYgMCwyMS4yMyAwLDEzLjY4IDAsNi4xMyAxNi45MSwwIDM3Ljc2LDAgNTguNjEsMCA3NS41Miw2LjEzIDc1LjUyLDEzLjY4IFoiLz4mI3hhOyYjeGE7PHBhdGggaWQ9InBhdGg5NzA0NiIgaW5rc2NhcGU6Y29ubmVjdG9yLWN1cnZhdHVyZT0iMCIgc3R5bGU9ImZpbGw6IzdmYmEwMCIgZD0ibSA2Ny44LDEyLjg5IGMgMCw0Ljk5IC0xMy40NSw5LjAzIC0zMC4wNCw5LjAzIC0xNi41OSwwIC0zMC4wNCwtNC4wNCAtMzAuMDQsLTkuMDMgMCwtNC45OCAxMy40NSwtOS4wMiAzMC4wNCwtOS4wMiAxNi41OSwwIDMwLjA0LDQuMDQgMzAuMDQsOS4wMiB6Ii8+JiN4YTsmI3hhOzxwYXRoIGlkPSJwYXRoOTcwNTQiIGlua3NjYXBlOmNvbm5lY3Rvci1jdXJ2YXR1cmU9IjAiIHN0eWxlPSJmaWxsOiNiOGQ0MzIiIGQ9Ik0gNjEuNTEsMTguNDEgQyA2NS40NCwxNi44OCA2Ny44LDE0Ljk3IDY3LjgsMTIuOSA2Ny44LDcuOTEgNTQuMzUsMy44NyAzNy43NiwzLjg3IDIxLjE3LDMuODcgNy43Miw3LjkxIDcuNzIsMTIuOSBjIDAsMi4wNyAyLjM2LDMuOTggNi4zLDUuNTEgNS40OSwtMi4xNCAxNC4wNywtMy41MSAyMy43NCwtMy41MSA5LjY3LDAgMTguMjUsMS4zNyAyMy43NSwzLjUxIHoiLz4mI3hhOyYjeGE7PHBhdGggaWQ9InBhdGg5NzA2MiIgaW5rc2NhcGU6Y29ubmVjdG9yLWN1cnZhdHVyZT0iMCIgc3R5bGU9ImZpbGw6I2ZmZmZmZiIgZD0ibSAyNS43Nyw2NC4xOCBjIDAsMi4yNiAtMC44Miw0LjAxIC0yLjQ2LDUuMjUgLTEuNjQsMS4yNCAtMy45LDEuODcgLTYuNzksMS44NyAtMi40NiwwIC00LjUyLC0wLjQ1IC02LjE3LC0xLjMzIHYgLTUuMzIgYyAxLjksMS42MSA0LDIuNDIgNi4zLDIuNDIgMS4xLDAgMS45NiwtMC4yMiAyLjU3LC0wLjY2IDAuNiwtMC40NCAwLjksLTEuMDMgMC45LC0xLjc2IDAsLTAuNzIgLTAuMjksLTEuMzUgLTAuODcsLTEuODggLTAuNTgsLTAuNTMgLTEuNzcsLTEuMjIgLTMuNTUsLTIuMDYgLTMuNjMsLTEuNzEgLTUuNDUsLTQuMDQgLTUuNDUsLTYuOTggMCwtMi4xNCAwLjc5LC0zLjg1IDIuMzgsLTUuMTQgMS41OCwtMS4yOSAzLjY5LC0xLjk0IDYuMzEsLTEuOTQgMi4zMywwIDQuMjUsMC4zMSA1Ljc5LDAuOTEgdiA0Ljk3IGMgLTEuNjEsLTEuMTEgLTMuNDQsLTEuNjYgLTUuNDksLTEuNjYgLTEuMDMsMCAtMS44NCwwLjIyIC0yLjQ0LDAuNjYgLTAuNiwwLjQzIC0wLjksMS4wMiAtMC45LDEuNzUgMCwwLjc1IDAuMjQsMS4zNyAwLjczLDEuODUgMC40OCwwLjQ4IDEuNDcsMS4wOCAyLjk2LDEuNzkgMi4yMywxLjA1IDMuODIsMi4xMiA0Ljc2LDMuMjEgMC45NSwxLjA4IDEuNDIsMi40NCAxLjQyLDQuMDUgeiIvPiYjeGE7JiN4YTs8cGF0aCBpZD0icGF0aDk3MDcwIiBpbmtzY2FwZTpjb25uZWN0b3ItY3VydmF0dXJlPSIwIiBzdHlsZT0iZmlsbDojZmZmZmZmIiBkPSJtIDUxLjQxLDU4Ljc5IGMgMCwyLjgxIC0wLjY0LDUuMjQgLTEuOTEsNy4zIC0xLjI4LDIuMDYgLTMuMDcsMy41IC01LjM5LDQuMzQgbCA2LjkyLDYuNCBIIDQ0LjA1IEwgMzkuMTEsNzEuMjkgQyAzNyw3MS4yMSAzNS4wOSw3MC42NSAzMy4zOSw2OS42MSBjIC0xLjcsLTEuMDQgLTMuMDIsLTIuNDcgLTMuOTQsLTQuMjggLTAuOTMsLTEuODEgLTEuMzksLTMuODMgLTEuMzksLTYuMDUgMCwtMi40NyAwLjUsLTQuNjggMS41LC02LjYxIDEuMDEsLTEuOTMgMi40MSwtMy40MiA0LjIzLC00LjQ2IDEuODIsLTEuMDQgMy45LC0xLjU2IDYuMjUsLTEuNTYgMi4xOSwwIDQuMTYsMC41IDUuODksMS41MSAxLjczLDEuMDEgMy4wOCwyLjQ0IDQuMDQsNC4zIDAuOTYsMS44NiAxLjQ0LDMuOTcgMS40NCw2LjMzIHogbSAtNS42NSwwLjMgYyAwLC0yLjQxIC0wLjUyLC00LjMyIC0xLjU4LC01LjcyIC0xLjA1LC0xLjQgLTIuNDksLTIuMSAtNC4zMiwtMi4xIC0xLjg2LDAgLTMuMzUsMC43IC00LjQ3LDIuMSAtMS4xMiwxLjQxIC0xLjY4LDMuMjggLTEuNjgsNS42MiAwLDIuMzMgMC41NSw0LjE5IDEuNjUsNS41OCAxLjA5LDEuMzkgMi41NSwyLjA4IDQuMzYsMi4wOCAxLjg2LDAgMy4zMiwtMC42NyA0LjQxLC0yLjAyIDEuMDksLTEuMzQgMS42MywtMy4xOSAxLjYzLC01LjU0IHoiLz4mI3hhOyYjeGE7PHBhdGggaWQ9InBhdGg5NzA3OCIgaW5rc2NhcGU6Y29ubmVjdG9yLWN1cnZhdHVyZT0iMCIgc3R5bGU9ImZpbGw6I2ZmZmZmZiIgZD0iTSA2OS41NCw3MC44OCBIIDU1LjM1IFYgNDcuMDUgaCA1LjM3IHYgMTkuNDcgaCA4LjgyIHoiLz4mI3hhOzwvc3ZnPg==;" vertex="1" parent="1">
          <mxGeometry x="822.93" y="424" width="54.15" height="70" as="geometry" />
        </mxCell>
        <mxCell id="cnw9rlaOAe4eeBvIx0O1-38" value="Logical database" style="text;strokeColor=none;align=center;fillColor=none;html=1;verticalAlign=middle;whiteSpace=wrap;rounded=0;" vertex="1" parent="1">
          <mxGeometry x="791.7600000000001" y="363" width="108.42" height="30" as="geometry" />
        </mxCell>
        <mxCell id="cnw9rlaOAe4eeBvIx0O1-39" value="" style="whiteSpace=wrap;html=1;fillColor=none;dashed=1;dashPattern=8 8;strokeColor=#FF0000;" vertex="1" parent="1">
          <mxGeometry x="770" y="278" width="160" height="282" as="geometry" />
        </mxCell>
        <mxCell id="cnw9rlaOAe4eeBvIx0O1-40" value="&lt;font color=&quot;#ff0000&quot;&gt;Backend&lt;/font&gt;" style="text;strokeColor=none;align=center;fillColor=none;html=1;verticalAlign=middle;whiteSpace=wrap;rounded=0;" vertex="1" parent="1">
          <mxGeometry x="785.97" y="230" width="120" height="40" as="geometry" />
        </mxCell>
        <mxCell id="cnw9rlaOAe4eeBvIx0O1-41" style="edgeStyle=orthogonalEdgeStyle;rounded=0;orthogonalLoop=1;jettySize=auto;html=1;dashed=1;dashPattern=8 8;strokeColor=#FF0000;startArrow=classic;startFill=1;" edge="1" parent="1">
          <mxGeometry relative="1" as="geometry">
            <mxPoint x="710" y="399" as="sourcePoint" />
            <mxPoint x="770" y="398.5" as="targetPoint" />
          </mxGeometry>
        </mxCell>
        <mxCell id="cnw9rlaOAe4eeBvIx0O1-42" value="" style="whiteSpace=wrap;html=1;fillColor=none;dashed=1;dashPattern=8 8;" vertex="1" parent="1">
          <mxGeometry x="220" y="230" width="770" height="380" as="geometry" />
        </mxCell>
        <mxCell id="cnw9rlaOAe4eeBvIx0O1-49" style="edgeStyle=orthogonalEdgeStyle;rounded=0;orthogonalLoop=1;jettySize=auto;html=1;exitX=1;exitY=0.5;exitDx=0;exitDy=0;entryX=0;entryY=0.131;entryDx=0;entryDy=0;entryPerimeter=0;strokeWidth=1;startArrow=classic;startFill=1;" edge="1" parent="1" source="cnw9rlaOAe4eeBvIx0O1-43" target="cnw9rlaOAe4eeBvIx0O1-7">
          <mxGeometry relative="1" as="geometry" />
        </mxCell>
        <mxCell id="cnw9rlaOAe4eeBvIx0O1-43" value="" style="shape=image;verticalLabelPosition=bottom;labelBackgroundColor=#ffffff;verticalAlign=top;aspect=fixed;imageAspect=0;image=data:image/svg+xml,PHN2ZyB4bWxuczpkYz0iaHR0cDovL3B1cmwub3JnL2RjL2VsZW1lbnRzLzEuMS8iIHhtbG5zOmNjPSJodHRwOi8vY3JlYXRpdmVjb21tb25zLm9yZy9ucyMiIHhtbG5zOnJkZj0iaHR0cDovL3d3dy53My5vcmcvMTk5OS8wMi8yMi1yZGYtc3ludGF4LW5zIyIgeG1sbnM6c3ZnPSJodHRwOi8vd3d3LnczLm9yZy8yMDAwL3N2ZyIgeG1sbnM9Imh0dHA6Ly93d3cudzMub3JnLzIwMDAvc3ZnIiB4bWxuczpzb2RpcG9kaT0iaHR0cDovL3NvZGlwb2RpLnNvdXJjZWZvcmdlLm5ldC9EVEQvc29kaXBvZGktMC5kdGQiIHhtbG5zOmlua3NjYXBlPSJodHRwOi8vd3d3Lmlua3NjYXBlLm9yZy9uYW1lc3BhY2VzL2lua3NjYXBlIiB2ZXJzaW9uPSIxLjEiIGlkPSJzdmc4MjQ1OSIgaW5rc2NhcGU6dmVyc2lvbj0iMC45Mi4zICgyNDA1NTQ2LCAyMDE4LTAzLTExKSIgc29kaXBvZGk6ZG9jbmFtZT0ia2V5X3ZhdWx0LnN2ZyIgeD0iMHB4IiB5PSIwcHgiIHZpZXdCb3g9IjAgMCA4OS42OSAxMDAuMTEiIHN0eWxlPSJlbmFibGUtYmFja2dyb3VuZDpuZXcgMCAwIDg5LjY5IDEwMC4xMTsiIHhtbDpzcGFjZT0icHJlc2VydmUiPjxtZXRhZGF0YSBpZD0ibWV0YWRhdGEyMzQ4Ij48cmRmOlJERj48Y2M6V29yayByZGY6YWJvdXQ9IiI+PGRjOmZvcm1hdD5pbWFnZS9zdmcreG1sPC9kYzpmb3JtYXQ+PGRjOnR5cGUgcmRmOnJlc291cmNlPSJodHRwOi8vcHVybC5vcmcvZGMvZGNtaXR5cGUvU3RpbGxJbWFnZSIvPjxkYzp0aXRsZS8+PC9jYzpXb3JrPjwvcmRmOlJERj48L21ldGFkYXRhPjxkZWZzIGlkPSJkZWZzMjM0NiIvPiYjeGE7PGZpbHRlciBpZD0iZmlsdGVyXzIiPiYjeGE7CTxmZUdhdXNzaWFuQmx1ciBpZD0iZmVHYXVzc2lhbkJsdXI4MjQzMiIgc3RkRGV2aWF0aW9uPSIyIi8+JiN4YTs8L2ZpbHRlcj4mI3hhOzxzb2RpcG9kaTpuYW1lZHZpZXcgYm9yZGVyY29sb3I9IiM2NjY2NjYiIGJvcmRlcm9wYWNpdHk9IjEiIGZpdC1tYXJnaW4tYm90dG9tPSIwIiBmaXQtbWFyZ2luLWxlZnQ9IjAiIGZpdC1tYXJnaW4tcmlnaHQ9IjAiIGZpdC1tYXJnaW4tdG9wPSIwIiBncmlkdG9sZXJhbmNlPSIxMCIgZ3VpZGV0b2xlcmFuY2U9IjEwIiBpZD0ibmFtZWR2aWV3ODI0NjEiIGlua3NjYXBlOmN1cnJlbnQtbGF5ZXI9InN2ZzgyNDU5IiBpbmtzY2FwZTpjeD0iNzMuODY0NzI3IiBpbmtzY2FwZTpjeT0iNTIuMzM5MjAxIiBpbmtzY2FwZTpwYWdlb3BhY2l0eT0iMCIgaW5rc2NhcGU6cGFnZXNoYWRvdz0iMiIgaW5rc2NhcGU6d2luZG93LWhlaWdodD0iMTAxNyIgaW5rc2NhcGU6d2luZG93LW1heGltaXplZD0iMSIgaW5rc2NhcGU6d2luZG93LXdpZHRoPSIxOTIwIiBpbmtzY2FwZTp3aW5kb3cteD0iLTgiIGlua3NjYXBlOndpbmRvdy15PSItOCIgaW5rc2NhcGU6em9vbT0iMy42OTA2MTY0IiBvYmplY3R0b2xlcmFuY2U9IjEwIiBwYWdlY29sb3I9IiNmZmZmZmYiIHNob3dncmlkPSJmYWxzZSI+JiN4YTsJPC9zb2RpcG9kaTpuYW1lZHZpZXc+JiN4YTsmI3hhOzxwYXRoIGlkPSJwYXRoODI0NDUiIGlua3NjYXBlOmNvbm5lY3Rvci1jdXJ2YXR1cmU9IjAiIHN0eWxlPSJmaWxsOiM3RkJBMDA7IiBkPSJNODkuNjksNTUuMjZjMC0xNC42Mi03LTI3LjQzLTE3LjYxLTM1LjY0ICBjMCwwLjQsMCwxLDAsMS40YzAsNC40MS0xLjIxLDguNjEtMy4wMSwxMi4yMWM1LjIxLDUuODEsOC40MSwxMy40Miw4LjQxLDIxLjgzYzAsMTguMDItMTQuNjEsMzIuNjMtMzIuNjMsMzIuNjMgIFMxMi4yMSw3My4wOCwxMi4yMSw1NS4wNmMwLTkuMDEsMy42MS0xNy4wMiw5LjQxLTIzLjAzYy0xLjYtMy40LTIuNi03LjItMi42LTExLjIxYzAtMC44LDAtMS44LDAuMi0yLjZDNy42MSwyNi4yMywwLDM5Ljg0LDAsNTUuMDYgIGMwLDI1LjAyLDIwLjAyLDQ1LjA1LDQ0Ljg1LDQ1LjA1QzY5LjY3LDEwMC4xMSw4OS42OSw4MC4wOCw4OS42OSw1NS4yNnoiLz4mI3hhOyYjeGE7PHBhdGggaWQ9InBhdGg4MjQ1MyIgaW5rc2NhcGU6Y29ubmVjdG9yLWN1cnZhdHVyZT0iMCIgc3R5bGU9ImZpbGw6I0ZDRDExNjsiIGQ9Ik00NS40NSwwQzM0LjA0LDAsMjQuODMsOS4yMSwyNC44MywyMC42MiAgYzAsOS40MSw2LjIxLDE3LjIyLDE0LjgyLDE5LjgydjIwLjQzaC05LjYxdjEwLjQxaDkuNjF2Ny42MWgxMS40MVY0MC4yNGM4LjYxLTIuNCwxNC44MS0xMC40MSwxNC44MS0xOS44MiAgQzY2LjA3LDkuMjEsNTYuODYsMCw0NS40NSwweiBNNDUuNDUsMTAuODFjNS40MSwwLDkuODEsNC40MSw5LjgxLDkuODFjMCw1LjQxLTQuNCw5LjgxLTkuODEsOS44MWMtNS40LDAtOS44MS00LjQtOS44MS05LjgxICBDMzUuNjQsMTUuMjIsNDAuMDUsMTAuODEsNDUuNDUsMTAuODF6Ii8+JiN4YTs8L3N2Zz4=;" vertex="1" parent="1">
          <mxGeometry x="250" y="290" width="45" height="50" as="geometry" />
        </mxCell>
        <mxCell id="cnw9rlaOAe4eeBvIx0O1-44" value="&lt;font color=&quot;#ff0000&quot;&gt;Azure key Vault&lt;br&gt;&lt;/font&gt;" style="text;strokeColor=none;align=center;fillColor=none;html=1;verticalAlign=middle;whiteSpace=wrap;rounded=0;" vertex="1" parent="1">
          <mxGeometry x="240.42000000000007" y="349" width="64.16" height="30" as="geometry" />
        </mxCell>
        <mxCell id="cnw9rlaOAe4eeBvIx0O1-55" style="edgeStyle=orthogonalEdgeStyle;rounded=0;orthogonalLoop=1;jettySize=auto;html=1;entryX=0.5;entryY=1;entryDx=0;entryDy=0;" edge="1" parent="1" source="cnw9rlaOAe4eeBvIx0O1-51" target="cnw9rlaOAe4eeBvIx0O1-4">
          <mxGeometry relative="1" as="geometry" />
        </mxCell>
        <mxCell id="cnw9rlaOAe4eeBvIx0O1-51" value="Client" style="sketch=0;outlineConnect=0;fontColor=#232F3E;gradientColor=none;strokeColor=#232F3E;fillColor=#ffffff;dashed=0;verticalLabelPosition=bottom;verticalAlign=top;align=center;html=1;fontSize=12;fontStyle=0;aspect=fixed;shape=mxgraph.aws4.resourceIcon;resIcon=mxgraph.aws4.client;" vertex="1" parent="1">
          <mxGeometry x="33.93" y="478" width="90" height="90" as="geometry" />
        </mxCell>
      </root>
    </mxGraphModel>
  </diagram>
</mxfile>
